<svg xmlns="http://www.w3.org/2000/svg" width="50" height="50" viewBox="0 0 50 50"><g transform="translate(-3.87 -3.5)"><path d="M31.836,29.009l-6.6-6.6,6.6-6.6a2,2,0,0,0-2.83-2.83l-6.6,6.6-6.6-6.6a2,2,0,1,0-2.83,2.83l6.6,6.6-6.6,6.6a1.935,1.935,0,0,0,0,2.83,1.988,1.988,0,0,0,2.83,0l6.6-6.6,6.6,6.6a2.011,2.011,0,0,0,2.83,0A1.988,1.988,0,0,0,31.836,29.009Z" transform="translate(5.982 5.617)" fill="#fff"/><path d="M28.375,6.74a21.638,21.638,0,0,1,15.3,36.935,21.638,21.638,0,0,1-30.6-30.6,21.491,21.491,0,0,1,15.3-6.334m0-3.365a25,25,0,1,0,25,25,25,25,0,0,0-25-25Z" transform="translate(0.495 0.125)" fill="#fff"/></g></svg>