<?xml version="1.0" encoding="UTF-8"?>
<svg id="Layer_1" data-name="Layer 1" xmlns="http://www.w3.org/2000/svg" viewBox="0 0 100 100">
  <defs>
    <style>
      .cls-1 {
        fill: #85d3f2;
      }

      .cls-2 {
        fill: #ccf244;
      }

      .cls-3 {
        fill: #f24b78;
      }

      .cls-4 {
        fill: #7663f2;
      }

      .cls-5 {
        fill: none;
      }

      .cls-6 {
        fill: #f2b705;
      }
    </style>
  </defs>
  <circle class="cls-5" cx="50" cy="50" r="50"/>
  <path class="cls-2" d="m85.1,14.42c-14.31,2.6-28.27,8.38-40.83,17.5-.42.31-.83.63-1.24.94,4.25-.55,8.57-.85,12.97-.85,15.52,0,30.22,3.54,43.33,9.85-1.75-10.66-6.87-20.17-14.23-27.43Z"/>
  <path class="cls-6" d="m57.48.58c-10.05,10.51-17.95,23.39-22.74,38.15-.16.5-.3.99-.45,1.49,3.11-2.94,6.44-5.73,9.99-8.31,12.56-9.12,26.53-14.9,40.84-17.5-7.68-7.59-17.42-12.28-27.64-13.83Z"/>
  <path class="cls-3" d="m27,5.62c-1.95,14.41-.77,29.48,4.02,44.23.16.5.34.98.51,1.47.79-4.21,1.84-8.42,3.2-12.6,4.8-14.76,12.7-27.65,22.76-38.16-10.68-1.63-21.31.3-30.49,5.05Z"/>
  <path class="cls-4" d="m5.31,27.62c6.89,12.81,16.7,24.3,29.26,33.42.42.31.85.59,1.28.89-1.84-3.87-3.46-7.89-4.82-12.07-4.8-14.76-5.97-29.83-4.02-44.25-9.6,4.96-17.06,12.77-21.7,22.01Z"/>
  <path class="cls-1" d="m.69,58.16c13.11,6.31,27.8,9.84,43.31,9.84.52,0,1.04-.02,1.56-.03-3.76-2.05-7.43-4.35-10.99-6.93-12.56-9.12-22.37-20.62-29.26-33.44C.45,37.25-1,47.96.69,58.16Z"/>
  <path class="cls-2" d="m14.9,85.59c14.31-2.6,28.27-8.38,40.83-17.5.42-.31.83-.63,1.24-.94-4.25.55-8.57.85-12.97.85-15.52,0-30.22-3.54-43.33-9.85,1.75,10.66,6.87,20.17,14.23,27.43Z"/>
  <path class="cls-6" d="m42.52,99.42c10.05-10.51,17.95-23.39,22.74-38.15.16-.5.3-.99.45-1.49-3.11,2.94-6.44,5.73-9.99,8.31-12.56,9.12-26.53,14.9-40.84,17.5,7.68,7.59,17.42,12.28,27.64,13.83Z"/>
  <path class="cls-3" d="m73,94.38c1.95-14.41.77-29.48-4.02-44.23-.16-.5-.34-.98-.51-1.47-.79,4.21-1.84,8.42-3.2,12.6-4.8,14.76-12.7,27.65-22.76,38.16,10.68,1.63,21.31-.3,30.49-5.05Z"/>
  <path class="cls-4" d="m94.69,72.39c-6.89-12.81-16.7-24.3-29.26-33.42-.42-.31-.85-.59-1.28-.89,1.84,3.87,3.46,7.89,4.82,12.07,4.8,14.76,5.97,29.83,4.02,44.25,9.6-4.96,17.06-12.77,21.7-22.01Z"/>
  <path class="cls-1" d="m99.31,41.84c-13.11-6.31-27.8-9.84-43.31-9.84-.52,0-1.04.02-1.56.03,3.76,2.05,7.43,4.35,10.99,6.93,12.56,9.12,22.37,20.62,29.26,33.44,4.85-9.65,6.3-20.36,4.62-30.56Z"/>
</svg>