<svg xmlns="http://www.w3.org/2000/svg" width="38" height="38" viewBox="0 0 38 38">
  <g id="Group_44" data-name="Group 44" transform="translate(-210 -35)">
    <path id="Path_201" data-name="Path 201" d="M224.706,20.915a19,19,0,1,1-19-19,19,19,0,0,1,19,19" transform="translate(23.294 33.085)" fill="#56e0dc"/>
    <path id="Path_202" data-name="Path 202" d="M224.689,41.163,202.133,46.37q-.26-3.7-.521-7.394L224.686,33.8Z" transform="translate(15.94 17.353)" fill="none" stroke="#fff" stroke-linecap="round" stroke-linejoin="round" stroke-width="2"/>
    <path id="Path_203" data-name="Path 203" d="M223.431,22.808a12.592,12.592,0,0,1,.981,2.111c-4.675,1.131-19.978,4.823-22.1,5.1-.238.031-.886.116-1.032-.157-.184-.343.529-1.069.962-1.483,2.1-2.009,11.522-10.019,13.837-11.985a22.042,22.042,0,0,1,2.378,1.432A15.562,15.562,0,0,1,223.431,22.808Z" transform="translate(16.117 25.942)" fill="none" stroke="#fff" stroke-linecap="round" stroke-linejoin="round" stroke-width="2"/>
    <path id="Path_204" data-name="Path 204" d="M232.776,25.314a1.565,1.565,0,1,1-1.565-1.565h.047A1.643,1.643,0,0,1,232.776,25.314Z" transform="translate(2.11 22.314)" fill="none" stroke="#fff" stroke-linecap="round" stroke-linejoin="round" stroke-width="2"/>
    <path id="Path_205" data-name="Path 205" d="M231.868,21.939a1.406,1.406,0,0,1,0-1.083,1.525,1.525,0,0,1,1.692-.745" transform="translate(1.069 24.124)" fill="none" stroke="#fff" stroke-linecap="round" stroke-linejoin="round" stroke-width="2"/>
  </g>
</svg>
