<?xml version="1.0" encoding="utf-8"?>
<!-- Generator: Adobe Illustrator 27.7.0, SVG Export Plug-In . SVG Version: 6.00 Build 0)  -->
<svg version="1.1" id="Layer_2_00000000222877531870684790000010382642164797023367_"
	 xmlns="http://www.w3.org/2000/svg" xmlns:xlink="http://www.w3.org/1999/xlink" x="0px" y="0px" viewBox="0 0 154 154.5"
	 style="enable-background:new 0 0 154 154.5;" xml:space="preserve">
<style type="text/css">
	.st0{fill:#EA5D89;}
	.st1{fill:#96D5CE;}
	.st2{fill:#FFFFFF;}
</style>
<g id="Layer_1-2">
	<g>
		<circle class="st0" cx="77" cy="77" r="77"/>
	</g>
	<g>
		<path class="st1" d="M105.2,141.1c-5.8,12.3-26.8,12.4-28.7,12.4c-2.8,0-20.5-0.1-26.2-10.7c-7.5-13.9,8.3-42.3,27-42.4
			S112,126.6,105.2,141.1z"/>
		<path class="st2" d="M76.6,154.5c-0.1,0-0.1,0-0.1,0c-6.4,0-21.7-1.2-27-11.2c-3.6-6.7-2.2-17.4,3.5-27.1
			c6.1-10.3,15.4-16.8,24.3-16.8c0.1,0,0.1,0,0.2,0c8.9,0,18.2,6,24.4,15.7c5.9,9.3,7.6,19.4,4.2,26.5l0,0
			C100.2,154,79.6,154.5,76.6,154.5z M77.5,101.3c-0.1,0-0.1,0-0.2,0c-9.8,0.1-18.1,8.2-22.6,15.9c-5.4,9.1-6.8,19-3.5,25.1
			c4.8,9.1,19.3,10.1,25.3,10.2c2.3,0,22.3-0.2,27.8-11.8h0c3-6.4,1.4-16-4.1-24.6C94.4,107,85.7,101.3,77.5,101.3z"/>
	</g>
	<g>
		<ellipse transform="matrix(0.2168 -0.9762 0.9762 0.2168 7.9428 93.6329)" class="st1" cx="62.3" cy="41.9" rx="33.4" ry="12.8"/>
		<path class="st2" d="M56.2,75.6c-0.4,0-0.9,0-1.3-0.1c-7.6-1.7-10.2-17.8-6-36.6S62.2,6.6,69.8,8.3c3.8,0.8,6.4,5.2,7.5,12.4
			c1,6.8,0.5,15.4-1.5,24.3C71.9,62.6,63.4,75.6,56.2,75.6z M68.5,10.1c-5.6,0-13.7,11.2-17.7,29.2c-4.2,18.9-1.1,33,4.5,34.2
			c5.6,1.2,14.4-10.2,18.6-29.1c1.9-8.6,2.4-17,1.4-23.5c-0.9-6.2-3.1-10.1-5.9-10.7C69.1,10.1,68.8,10.1,68.5,10.1z"/>
	</g>
	<g>
		
			<ellipse transform="matrix(0.9762 -0.2168 0.2168 0.9762 -6.9264 20.5785)" class="st1" cx="90.3" cy="41.9" rx="12.8" ry="33.4"/>
		<path class="st2" d="M96.5,75.6c-3.4,0-7.2-2.8-10.7-8.2c-3.8-5.7-7-13.8-8.9-22.6c-4.2-18.8-1.5-34.9,6-36.6l0,0
			c7.6-1.7,16.8,11.8,20.9,30.6c4.2,18.8,1.5,34.9-6,36.6C97.4,75.6,96.9,75.6,96.5,75.6z M83.3,10.2L83.3,10.2
			c-5.6,1.2-8.7,15.3-4.5,34.2c1.9,8.6,5,16.4,8.6,21.9c3.4,5.2,7.1,7.8,9.9,7.2c5.6-1.2,8.7-15.3,4.5-34.2
			C97.7,20.4,88.9,9,83.3,10.2z"/>
	</g>
	<g>
		<path class="st1" d="M110.8,103.8c-6.3,14-29.2,15.2-32.6,15.4c-3.5,0.2-27.2,1.1-34.3-12c-9-16.5,10.3-51.6,33.3-51.6
			C98.8,55.7,118.6,86.6,110.8,103.8z"/>
		<path class="st2" d="M74.8,120.3c-8.2,0-25.7-1.4-31.8-12.6c-4.3-8-2.6-20.7,4.4-32.5c5.9-9.9,16.8-20.5,29.8-20.5c0,0,0,0,0,0
			c10.5,0,21.7,7.3,29.2,19c6.9,10.7,8.9,22.4,5.2,30.6l0,0c-5.9,13.1-25.3,15.6-33.4,16C77.6,120.3,76.4,120.3,74.8,120.3z
			 M77.2,56.6c-12.1,0-22.4,10.1-28.1,19.5c-6.7,11.2-8.4,23.2-4.4,30.6c6.7,12.3,29,11.7,33.4,11.5c7.7-0.4,26.3-2.8,31.7-14.9
			c3.4-7.5,1.4-18.5-5.1-28.7C97.6,63.6,87,56.7,77.2,56.6C77.2,56.6,77.2,56.6,77.2,56.6z"/>
	</g>
	<g>
		<ellipse class="st2" cx="68.6" cy="86.7" rx="2.9" ry="5.8"/>
	</g>
	<g>
		<path class="st2" d="M82.5,94.9c0.5,1.3-1.4,4.5-4.5,4.5s-5.1-3.2-4.5-4.5C74.3,92.8,81.7,92.8,82.5,94.9L82.5,94.9z"/>
	</g>
	<g>
		<circle class="st1" cx="98.8" cy="115.8" r="9"/>
		<path class="st2" d="M98.8,125.8c-5.5,0-10-4.5-10-10s4.5-10,10-10s10,4.5,10,10S104.3,125.8,98.8,125.8z M98.8,107.8
			c-4.4,0-8,3.6-8,8s3.6,8,8,8s8-3.6,8-8S103.2,107.8,98.8,107.8z"/>
	</g>
	<g>
		<circle class="st1" cx="55.9" cy="116.6" r="9"/>
		<path class="st2" d="M55.9,126.6c-5.5,0-10-4.5-10-10s4.5-10,10-10s10,4.5,10,10S61.4,126.6,55.9,126.6z M55.9,108.6
			c-4.4,0-8,3.6-8,8s3.6,8,8,8s8-3.6,8-8S60.3,108.6,55.9,108.6z"/>
	</g>
	<g>
		<path class="st2" d="M83.6,89.7c-0.3,0-0.6-0.1-0.8-0.3c-0.4-0.4-0.4-1.1,0-1.6l4.4-4.4c0.4-0.4,1.1-0.4,1.6,0s0.4,1.1,0,1.6
			l-4.4,4.4C84.2,89.6,83.9,89.7,83.6,89.7z"/>
	</g>
	<g>
		<path class="st2" d="M89.7,91.4c-0.1,0-0.2,0-0.3,0l-6.1-1.7c-0.6-0.2-0.9-0.8-0.8-1.4s0.8-0.9,1.4-0.8l6.1,1.7
			c0.6,0.2,0.9,0.8,0.8,1.4C90.6,91.1,90.2,91.4,89.7,91.4z"/>
	</g>
</g>
</svg>
