<svg xmlns="http://www.w3.org/2000/svg" xmlns:xlink="http://www.w3.org/1999/xlink" width="50" height="35.279" viewBox="0 0 50 35.279"><defs><clipPath id="a"><rect width="50" height="35.279" fill="none"/></clipPath></defs><g clip-path="url(#a)"><path d="M48.968,18.979c0,9.626-10.962,17.429-24.484,17.429S0,28.605,0,18.979,10.962,1.55,24.484,1.55s24.484,7.8,24.484,17.429" transform="translate(0 -1.129)" fill="#f7931e"/><path d="M51.093,18.839a10.459,10.459,0,0,1-1.867,3.424c-1.9,2.21-3.667,2.071-4.565,4.15-.387.9-.17,1.183-.644,2.065-.132.246-.836,1.556-1.864,1.66-.844.086-1.1-.722-2.107-1.215-2.153-1.055-5.318.516-7,1.847-1.57,1.24-1.343,1.864-2.282,2.075-2.085.469-3.182-2.545-6.432-2.7a7.8,7.8,0,0,0-3.066.533c-1.262.494-1.475.977-2.442,1.085a3.484,3.484,0,0,1-2.985-1.085c-.933-1.155-.128-2.347-1.085-3.256a2.815,2.815,0,0,0-2.442-.543c-1.714.377-2.2,2.21-2.92,2.021s-.292-2.026-1.421-3.649c-.761-1.093-1.52-.991-2.728-1.954a7.879,7.879,0,0,1-2.7-4.461c-1.248-5.425,3.9-10.3,5.187-11.516,5.96-5.641,13.918-5.749,18.467-5.81,4.334-.058,11.908-.16,18.259,4.98,3.222,2.608,7.9,8,6.64,12.346" transform="translate(-1.71 -1.093)" fill="#fce38a"/><path d="M30.323,34.394a5.246,5.246,0,0,1-3.166-1.406,5.061,5.061,0,0,0-2.9-1.342c-.057,0-.119,0-.184,0a6.452,6.452,0,0,0-2.265.435,5.727,5.727,0,0,0-.959.488,4.2,4.2,0,0,1-1.864.691,4.945,4.945,0,0,1-.547.03,4.837,4.837,0,0,1-3.771-1.664,4.15,4.15,0,0,1-.862-2.549c-.026-.407-.043-.518-.089-.561a1.144,1.144,0,0,0-.727-.2,1.691,1.691,0,0,0-.36.037,2.311,2.311,0,0,0-1.16.9,2.65,2.65,0,0,1-1.978,1.17,1.912,1.912,0,0,1-.485-.063A2.011,2.011,0,0,1,7.63,29.044a5.975,5.975,0,0,1-.257-1.06,4.584,4.584,0,0,0-.639-1.874,1.906,1.906,0,0,0-.887-.671,8.5,8.5,0,0,1-1.527-.952,9.492,9.492,0,0,1-3.243-5.312A11.014,11.014,0,0,1,2.914,10.7,23.642,23.642,0,0,1,6.7,6.234,21.9,21.9,0,0,1,17.162.862,42.727,42.727,0,0,1,26.174.014C26.66.007,27.211,0,27.79,0a35.773,35.773,0,0,1,8.228.827,23.1,23.1,0,0,1,9.379,4.5,26.06,26.06,0,0,1,5.322,5.881,14.038,14.038,0,0,1,1.77,3.846,7.728,7.728,0,0,1,.045,4.2,12,12,0,0,1-2.17,3.983A10.983,10.983,0,0,1,47.6,25.51c-.87.545-1.267.814-1.563,1.5a2.435,2.435,0,0,0-.176.633,4.683,4.683,0,0,1-.523,1.547A4.136,4.136,0,0,1,42.3,31.63a2.712,2.712,0,0,1-.273.014A2.946,2.946,0,0,1,40,30.724a2.723,2.723,0,0,0-.614-.455,2.158,2.158,0,0,0-.953-.193,8.3,8.3,0,0,0-4.462,1.871,5.3,5.3,0,0,0-1.07,1.1,2.911,2.911,0,0,1-1.812,1.264A3.5,3.5,0,0,1,30.323,34.394Zm-6.25-5.753c.112,0,.221,0,.324.007a7.867,7.867,0,0,1,4.575,1.95,3.421,3.421,0,0,0,1.351.8.446.446,0,0,0,.066-.005c.036-.045.082-.105.121-.157a8.2,8.2,0,0,1,1.6-1.639,11.163,11.163,0,0,1,6.321-2.516,5.119,5.119,0,0,1,2.274.5,5.5,5.5,0,0,1,1.287.907l.1.088a2.612,2.612,0,0,0,.6-.8,1.749,1.749,0,0,0,.212-.654,5.347,5.347,0,0,1,.376-1.3,6.049,6.049,0,0,1,2.726-2.852,8.076,8.076,0,0,0,2.079-1.681,9,9,0,0,0,1.564-2.864c1-3.44-3.127-8.321-6.143-10.762C38.407,3.53,32.428,3,27.79,3c-.559,0-1.076.007-1.576.014-4.459.06-11.921.16-17.456,5.4C3.955,12.96,3.52,16.41,4,18.5a6.425,6.425,0,0,0,2.111,3.579l.04.028.019.017a5.663,5.663,0,0,0,1.044.643A4.752,4.752,0,0,1,9.2,24.4a6.286,6.286,0,0,1,.9,1.975,4.357,4.357,0,0,1,1.89-.955,4.684,4.684,0,0,1,1-.107,4.013,4.013,0,0,1,2.792,1.026A3.492,3.492,0,0,1,16.8,28.885c.031.494.054.669.2.853a2.039,2.039,0,0,0,1.651.537A1.366,1.366,0,0,0,19.3,30a8.683,8.683,0,0,1,1.412-.711A9.432,9.432,0,0,1,24.072,28.642Z" transform="translate(-1.71 -1.093)" fill="#fff"/><path d="M78.193,40.736c0,2.636-3.809,4.772-8.507,4.772s-8.507-2.137-8.507-4.772,3.809-4.772,8.507-4.772,8.507,2.137,8.507,4.772" transform="translate(-44.58 -26.206)" fill="#f7931e"/><path d="M138.632,22.2l1.353,1.6" transform="translate(-101.018 -16.175)" fill="blue"/><path d="M139.986,25.283a1.482,1.482,0,0,1-1.135-.526l-1.353-1.6a1.485,1.485,0,0,1,2.268-1.917l1.353,1.6a1.485,1.485,0,0,1-1.133,2.444Z" transform="translate(-101.018 -16.175)" fill="#95e1d3"/><path d="M91.695,86.158l-.578-2.014" transform="translate(-66.395 -61.314)" fill="blue"/><path d="M91.694,87.643a1.486,1.486,0,0,1-1.427-1.076l-.578-2.014a1.485,1.485,0,1,1,2.855-.819l.578,2.014a1.486,1.486,0,0,1-1.428,1.9Z" transform="translate(-66.395 -61.314)" fill="#eaffd0"/><path d="M69.556,97.36l1.353,1.6" transform="translate(-50.684 -70.944)" fill="blue"/><path d="M70.91,100.445a1.482,1.482,0,0,1-1.135-.526l-1.353-1.6A1.485,1.485,0,0,1,70.69,96.4L72.043,98a1.485,1.485,0,0,1-1.133,2.444Z" transform="translate(-50.684 -70.944)" fill="#ff75a0"/><path d="M134.6,39.853,133.2,41.417" transform="translate(-97.063 -29.04)" fill="blue"/><path d="M133.2,42.9A1.485,1.485,0,0,1,132.1,40.43l1.393-1.564a1.485,1.485,0,1,1,2.218,1.975l-1.394,1.564A1.481,1.481,0,0,1,133.2,42.9Z" transform="translate(-97.063 -29.04)" fill="lime"/><path d="M46.639,22.477l1.339-1.612" transform="translate(-33.985 -15.204)" fill="blue"/><path d="M46.638,23.962A1.485,1.485,0,0,1,45.5,21.528l1.339-1.612a1.485,1.485,0,0,1,2.284,1.9l-1.339,1.612A1.482,1.482,0,0,1,46.638,23.962Z" transform="translate(-33.985 -15.204)" fill="#ff75a0"/><path d="M115.82,91.642q.019,1.048.037,2.095" transform="translate(-84.395 -66.777)" fill="blue"/><path d="M115.857,95.222a1.485,1.485,0,0,1-1.484-1.458l-.037-2.095a1.485,1.485,0,0,1,2.97-.053l.037,2.095a1.485,1.485,0,0,1-1.458,1.511Z" transform="translate(-84.395 -66.777)" fill="#95e1d3"/><path d="M44.837,65.188l-.826,1.926" transform="translate(-32.07 -47.501)" fill="blue"/><path d="M44.01,68.6a1.486,1.486,0,0,1-1.364-2.071l.825-1.925a1.485,1.485,0,0,1,2.73,1.17L45.376,67.7A1.485,1.485,0,0,1,44.01,68.6Z" transform="translate(-32.07 -47.501)" fill="lime"/><path d="M62.425,21.678l2.038-.487" transform="translate(-45.488 -15.441)" fill="blue"/><path d="M62.424,23.163a1.485,1.485,0,0,1-.344-2.93l2.038-.487a1.485,1.485,0,1,1,.69,2.889l-2.038.487A1.489,1.489,0,0,1,62.424,23.163Z" transform="translate(-45.488 -15.441)" fill="aqua"/><path d="M25.451,35.2,26.8,36.8" transform="translate(-18.546 -25.649)" fill="blue"/><path d="M26.8,38.284a1.482,1.482,0,0,1-1.135-.526l-1.353-1.6a1.485,1.485,0,1,1,2.268-1.917l1.353,1.6A1.485,1.485,0,0,1,26.8,38.284Z" transform="translate(-18.546 -25.649)" fill="#eaffd0"/><path d="M102.689,19.14l1.353,1.6" transform="translate(-74.827 -13.947)" fill="blue"/><path d="M104.043,22.225a1.482,1.482,0,0,1-1.135-.526l-1.353-1.6a1.485,1.485,0,1,1,2.268-1.917l1.353,1.6a1.485,1.485,0,0,1-1.133,2.444Z" transform="translate(-74.827 -13.947)" fill="#fcee21"/><path d="M30.54,69.1l-2.068.338" transform="translate(-20.747 -50.349)" fill="blue"/><path d="M28.47,70.919a1.485,1.485,0,0,1-.238-2.951L30.3,67.63a1.485,1.485,0,0,1,.479,2.931l-2.068.338A1.5,1.5,0,0,1,28.47,70.919Z" transform="translate(-20.747 -50.349)" fill="#ff75a0"/><path d="M85.564,7.678l-.593,2.009" transform="translate(-61.916 -5.595)" fill="blue"/><path d="M84.972,11.173a1.486,1.486,0,0,1-1.425-1.906l.593-2.009a1.485,1.485,0,1,1,2.849.84l-.593,2.01A1.486,1.486,0,0,1,84.972,11.173Z" transform="translate(-61.916 -5.595)" fill="lime"/><path d="M126.148,68.725l.242,2.081" transform="translate(-91.921 -50.078)" fill="blue"/><path d="M126.388,72.291a1.485,1.485,0,0,1-1.473-1.313l-.242-2.081a1.485,1.485,0,1,1,2.95-.344l.242,2.081a1.485,1.485,0,0,1-1.3,1.647A1.5,1.5,0,0,1,126.388,72.291Z" transform="translate(-91.921 -50.078)" fill="lime"/><path d="M167.442,58.358l1.353,1.6" transform="translate(-122.011 -42.524)" fill="blue"/><path d="M168.8,61.443a1.482,1.482,0,0,1-1.135-.526l-1.353-1.6a1.485,1.485,0,1,1,2.268-1.917l1.353,1.6a1.485,1.485,0,0,1-1.133,2.444Z" transform="translate(-122.011 -42.524)" fill="#ff75a0"/><path d="M146.615,75.094l2-.623" transform="translate(-106.835 -54.265)" fill="blue"/><path d="M146.615,76.58a1.485,1.485,0,0,1-.441-2.9l2-.623a1.485,1.485,0,1,1,.884,2.836l-2,.623A1.485,1.485,0,0,1,146.615,76.58Z" transform="translate(-106.835 -54.265)" fill="#95e1d3"/><path d="M81.691,58.479c0,1.031-2.88,1.868-6.432,1.868s-6.432-.836-6.432-1.868,2.88-1.868,6.432-1.868,6.432.836,6.432,1.868" transform="translate(-50.152 -41.251)" fill="#fff"/></g></svg>