<svg id="Drink_icon" data-name="Drink icon" xmlns="http://www.w3.org/2000/svg" width="54.513" height="54.513" viewBox="0 0 54.513 54.513">
  <path id="Path_198" data-name="Path 198" d="M54.513,27.256A27.256,27.256,0,1,0,27.256,54.513,27.256,27.256,0,0,0,54.513,27.256" fill="#56e0dc"/>
  <path id="Path_199" data-name="Path 199" d="M43.7,12.1l-6.076-.218.6,4.458H36.687l.031-5.548H43.7Z" transform="translate(-10.021 -2.949)" fill="#56e0dc" stroke="#fff" stroke-linecap="round" stroke-linejoin="round" stroke-width="2"/>
  <path id="Path_200" data-name="Path 200" d="M43.6,21.7q-1.95,14.933-3.91,29.875a1.245,1.245,0,0,1-1.235,1.084H28.216a1.247,1.247,0,0,1-1.241-1.122q-1.487-14.926-2.963-29.847H43.6A.008.008,0,0,1,43.6,21.7Z" transform="translate(-6.559 -5.924)" fill="#56e0dc" stroke="#fff" stroke-linecap="round" stroke-linejoin="round" stroke-width="2"/>
  <path id="Rectangle_58" data-name="Rectangle 58" d="M.718,0h22a.717.717,0,0,1,.717.717v.935a.717.717,0,0,1-.717.717h-22A.718.718,0,0,1,0,1.651V.718A.718.718,0,0,1,.718,0Z" transform="translate(15.538 13.394)" fill="#56e0dc" stroke="#fff" stroke-linejoin="round" stroke-width="2"/>
</svg>
