<?xml version="1.0" encoding="UTF-8"?>
<svg id="Layer_2" data-name="Layer 2" xmlns="http://www.w3.org/2000/svg" viewBox="0 0 105.94 14.35">
  <defs>
    <style>
      .cls-1 {
        fill: #f7e71e;
      }
    </style>
  </defs>
  <g id="Layer_1-2" data-name="Layer 1">
    <path id="Icon_awesome-star" data-name="Icon awesome-star" class="cls-1" d="m6.7.5l-1.83,3.71-4.1.6c-.49.07-.83.53-.76,1.02.03.19.12.37.26.51l2.97,2.89-.7,4.08c-.08.49.25.95.74,1.03.19.03.39,0,.56-.09l3.66-1.93,3.66,1.93c.44.23.98.05,1.21-.39.09-.17.12-.37.09-.56l-.7-4.08,2.96-2.89c.35-.35.36-.92,0-1.27-.14-.14-.32-.23-.51-.26l-4.1-.6-1.82-3.71c-.22-.44-.76-.62-1.21-.4-.17.09-.31.23-.4.4Z"/>
    <path id="Icon_awesome-star-2" data-name="Icon awesome-star" class="cls-1" d="m29.43.5l-1.83,3.71-4.1.6c-.49.07-.83.53-.76,1.02.03.19.12.37.26.51l2.97,2.89-.7,4.08c-.08.49.25.95.74,1.03.19.03.39,0,.56-.09l3.66-1.93,3.66,1.93c.44.23.98.05,1.21-.39.09-.17.12-.37.09-.56l-.7-4.08,2.96-2.89c.35-.35.36-.92,0-1.27-.14-.14-.32-.23-.51-.26l-4.1-.6-1.82-3.71c-.22-.44-.76-.62-1.21-.4-.17.09-.31.23-.4.4Z"/>
    <path id="Icon_awesome-star-3" data-name="Icon awesome-star" class="cls-1" d="m52.17.5l-1.83,3.71-4.1.6c-.49.07-.83.53-.76,1.02.03.19.12.37.26.51l2.97,2.89-.7,4.08c-.08.49.25.95.74,1.03.19.03.39,0,.56-.09l3.66-1.93,3.66,1.93c.44.23.98.05,1.21-.39.09-.17.12-.37.09-.56l-.7-4.08,2.96-2.89c.35-.35.36-.92,0-1.27-.14-.14-.32-.23-.51-.26l-4.1-.6-1.82-3.71c-.22-.44-.76-.62-1.21-.4-.17.09-.31.23-.4.4Z"/>
    <path id="Icon_awesome-star-4" data-name="Icon awesome-star" class="cls-1" d="m97.64.5l-1.83,3.71-4.1.6c-.49.07-.83.53-.76,1.02.03.19.12.37.26.51l2.97,2.89-.7,4.08c-.08.49.25.95.74,1.03.19.03.39,0,.56-.09l3.66-1.93,3.66,1.93c.44.23.98.05,1.21-.39.09-.17.12-.37.09-.56l-.7-4.08,2.96-2.89c.35-.35.36-.92,0-1.27-.14-.14-.32-.23-.51-.26l-4.1-.6-1.82-3.71c-.22-.44-.76-.62-1.21-.4-.17.09-.31.23-.4.4Z"/>
    <path id="Icon_awesome-star-5" data-name="Icon awesome-star" class="cls-1" d="m74.9.5l-1.83,3.71-4.1.6c-.49.07-.83.53-.76,1.02.03.19.12.37.26.51l2.97,2.89-.7,4.08c-.08.49.25.95.74,1.03.19.03.39,0,.56-.09l3.66-1.93,3.66,1.93c.44.23.98.05,1.21-.39.09-.17.12-.37.09-.56l-.7-4.08,2.96-2.89c.35-.35.36-.92,0-1.27-.14-.14-.32-.23-.51-.26l-4.1-.6-1.82-3.71c-.22-.44-.76-.62-1.21-.4-.17.09-.31.23-.4.4Z"/>
  </g>
</svg>