<svg id="Ice_cream_icon" data-name="Ice cream icon" xmlns="http://www.w3.org/2000/svg" xmlns:xlink="http://www.w3.org/1999/xlink" width="55" height="55" viewBox="0 0 55 55">
  <defs>
    <clipPath id="clip-path">
      <rect id="Rectangle_57" data-name="Rectangle 57" width="55" height="55" transform="translate(0 -0.138)" fill="#56e0dc"/>
    </clipPath>
  </defs>
  <g id="Group_27" data-name="Group 27" transform="translate(0 0.138)" clip-path="url(#clip-path)">
    <path id="Path_195" data-name="Path 195" d="M0,27.256A27.256,27.256,0,1,1,27.256,54.513,27.256,27.256,0,0,1,0,27.256" fill="#56e0dc"/>
    <path id="Path_196" data-name="Path 196" d="M42.479,35.943A64.615,64.615,0,0,1,39.835,47.52c-1.845,6.118-2.807,9.219-4.063,9.181-.922-.031-1.45-1.729-3.7-10.026-1.109-4.11-1.869-7-2.319-9.11a.833.833,0,0,0,.488-.194c.736-.636-.078-2.52.279-2.667.264-.1.636.93,1.279.93.706-.007.946-1.241,1.574-1.248.861-.016,1.209,2.264,2.008,2.264.768,0,1.023-2.048,1.946-2.109.714-.039.97,1.326,1.822,1.334.737.008.978-.969,1.7-.922s.946,1.054,1.5,1.023A.273.273,0,0,0,42.479,35.943Z" transform="translate(-8.128 -9.393)" fill="#56e0dc" stroke="#fff" stroke-miterlimit="10" stroke-width="2.134"/>
    <path id="Path_197" data-name="Path 197" d="M44.53,25.96a7.228,7.228,0,0,1-3.148,2.264c-.349,1.07-.683,1.465-.962,1.558a.273.273,0,0,1-.132.031c-.551.031-.776-.977-1.5-1.023s-.962.93-1.7.922c-.853-.007-1.108-1.372-1.822-1.334-.922.063-1.178,2.109-1.946,2.109-.8,0-1.148-2.279-2.008-2.264-.628.008-.869,1.241-1.574,1.249-.643,0-1.015-1.031-1.279-.931-.357.148.457,2.032-.279,2.667a.829.829,0,0,1-.488.194,1.118,1.118,0,0,1-.644-.093c-.5-.248-.62-.853-.713-1.326a3.56,3.56,0,0,1,.108-1.7,7.423,7.423,0,0,1-2.768-2.233,8.332,8.332,0,0,1-1.45-4.97c.256-4.482,6.079-9.375,12.2-9.25,5.762.116,11.29,4.668,11.584,9.118A8,8,0,0,1,44.53,25.96Z" transform="translate(-6.069 -3.231)" fill="#56e0dc" stroke="#fff" stroke-linecap="round" stroke-linejoin="round" stroke-width="2.134"/>
  </g>
</svg>
