<svg xmlns="http://www.w3.org/2000/svg" width="30" height="28.71" viewBox="0 0 30 28.71"><path d="M9.921,2.856a8.45,8.45,0,0,1,6.65,3.913A8.447,8.447,0,0,1,23.22,2.856a8.36,8.36,0,0,1,8.35,8.351,10.808,10.808,0,0,1-2.245,6.652A33.7,33.7,0,0,1,24.355,22.9a37.774,37.774,0,0,0-6.95,7.435l-.813,1.23-.842-1.21a39.514,39.514,0,0,0-6.914-7.24,32.408,32.408,0,0,1-5.023-5.07,11.148,11.148,0,0,1-2.243-6.839A8.36,8.36,0,0,1,9.921,2.856ZM16.572,11.1l-.906-1.928a8.591,8.591,0,0,0-2.378-3.027A5.534,5.534,0,0,0,9.921,4.856a6.358,6.358,0,0,0-6.35,6.351c0,4.636,2.905,7.182,6.584,10.4a45.829,45.829,0,0,1,6.4,6.46,44.094,44.094,0,0,1,6.475-6.666c3.655-3.24,6.542-5.8,6.542-10.2a6.358,6.358,0,0,0-6.35-6.351,5.532,5.532,0,0,0-3.366,1.293,8.585,8.585,0,0,0-2.377,3.026Z" transform="translate(-1.571 -2.856)" fill="#ff0c0c"/></svg>