<svg xmlns="http://www.w3.org/2000/svg" xmlns:xlink="http://www.w3.org/1999/xlink" width="63.612" height="61.917" viewBox="0 0 63.612 61.917"><defs><clipPath id="a"><rect width="63.612" height="61.917" transform="translate(0 0)" fill="none"/></clipPath></defs><g transform="translate(1011 -373.27)"><g transform="translate(-1011 373.27)" clip-path="url(#a)"><path d="M31.806,0A32.356,32.356,0,0,1,44.18,2.43,31.762,31.762,0,0,1,54.289,9.06a30.822,30.822,0,0,1,6.82,9.841,30.3,30.3,0,0,1,0,24.115,30.822,30.822,0,0,1-6.82,9.841,31.762,31.762,0,0,1-10.109,6.63,32.715,32.715,0,0,1-24.748,0,31.762,31.762,0,0,1-10.109-6.63A30.822,30.822,0,0,1,2.5,43.015,30.3,30.3,0,0,1,2.5,18.9,30.822,30.822,0,0,1,9.322,9.06,31.762,31.762,0,0,1,19.432,2.43,32.359,32.359,0,0,1,31.806,0Zm0,60.5a30.946,30.946,0,0,0,11.835-2.324A30.351,30.351,0,0,0,53.3,51.84a29.412,29.412,0,0,0,6.509-9.39,28.88,28.88,0,0,0,0-22.985,29.412,29.412,0,0,0-6.509-9.39,30.351,30.351,0,0,0-9.66-6.335,31.3,31.3,0,0,0-23.67,0,30.351,30.351,0,0,0-9.66,6.335A29.412,29.412,0,0,0,3.8,19.466a28.88,28.88,0,0,0,0,22.985,29.412,29.412,0,0,0,6.509,9.39,30.351,30.351,0,0,0,9.66,6.335A30.949,30.949,0,0,0,31.806,60.5Z" fill="#ff75a0"/><path d="M59.691,30.9c0,15.015-12.513,27.187-27.949,27.187S3.793,45.911,3.793,30.9,16.306,3.709,31.742,3.709,59.691,15.881,59.691,30.9" fill="#f1739e"/><path d="M33.147,36.4a6.9,6.9,0,0,0,2.62,3.107" fill="#fff"/><path d="M35.766,40.255a.746.746,0,0,1-.406-.12,7.653,7.653,0,0,1-2.9-3.444.75.75,0,0,1,1.381-.587,6.153,6.153,0,0,0,2.336,2.77.75.75,0,0,1-.407,1.38Z" fill="#f1739e"/><path d="M26.676,42.83a4.574,4.574,0,0,0,1.119,1.8" fill="#fff"/><path d="M27.795,45.381a.748.748,0,0,1-.527-.216,5.34,5.34,0,0,1-1.3-2.1.75.75,0,0,1,1.422-.476,3.833,3.833,0,0,0,.935,1.505.75.75,0,0,1-.527,1.284Z" fill="#f1739e"/><path d="M30.069,39.869a4.574,4.574,0,0,0,1.119,1.8,4.468,4.468,0,0,0,.931.707" fill="#fff"/><path d="M32.118,43.127a.747.747,0,0,1-.371-.1A5.226,5.226,0,0,1,30.66,42.2a5.339,5.339,0,0,1-1.3-2.1.75.75,0,0,1,1.422-.476,3.833,3.833,0,0,0,.935,1.505,3.728,3.728,0,0,0,.776.589.75.75,0,0,1-.372,1.4Z" fill="#f1739e"/></g><path d="M42.479,35.943A64.615,64.615,0,0,1,39.835,47.52c-1.845,6.118-2.807,9.219-4.063,9.181-.922-.031-1.45-1.729-3.7-10.026-1.109-4.11-2.058-7.34-2.508-9.449.186-.016.352.267.979,0,.736-.636.5-1.6.856-1.752.088-.307.029.19.673.19.706-.007.675-1.272,1.3-1.279.861-.016,1.209,2.264,2.008,2.264.768,0,1.023-2.048,1.946-2.109.714-.039.97,1.326,1.822,1.334.737.008.978-.969,1.7-.922s.946,1.054,1.5,1.023A.273.273,0,0,0,42.479,35.943Z" transform="translate(-1015.315 368.615)" fill="#fff"/><path d="M44.53,25.96a7.228,7.228,0,0,1-3.148,2.264c-.349,1.07-.683,1.465-.962,1.558a.273.273,0,0,1-.132.031c-.551.031-.776-.977-1.5-1.023s-.962.93-1.7.922c-.853-.007-1.108-1.372-1.822-1.334-.922.063-1.178,2.109-1.946,2.109-.8,0-1.148-2.279-2.008-2.264-.628.008-.869,1.241-1.574,1.249-.643,0-1.015-1.031-1.279-.931-.357.148.457,2.032-.279,2.667a.829.829,0,0,1-.488.194,1.118,1.118,0,0,1-.644-.093c-.5-.248-.62-.853-.713-1.326a3.56,3.56,0,0,1,.108-1.7,7.423,7.423,0,0,1-2.768-2.233,8.332,8.332,0,0,1-1.45-4.97c.256-4.482,6.079-9.375,12.2-9.25,5.762.116,11.29,4.668,11.584,9.118A8,8,0,0,1,44.53,25.96Z" transform="translate(-1013.32 373.044)" fill="#fff"/></g></svg>