<svg xmlns="http://www.w3.org/2000/svg" width="19.291" height="18.506" viewBox="0 0 19.291 18.506"><g transform="translate(-2.501 -199.5)"><path d="M-904.831,3339.506a1.117,1.117,0,0,1-.842-.4,1.071,1.071,0,0,1-.237-.885l.855-4.974-3.613-3.522a1.086,1.086,0,0,1-.277-1.121,1.086,1.086,0,0,1,.882-.746l4.995-.728,2.232-4.526a1.071,1.071,0,0,1,.836-.6v15.1l-4.323,2.272A1.078,1.078,0,0,1-904.831,3339.506Z" transform="translate(912.146 -3122.009)" fill="#f7e71e"/><path d="M10.584-.5a1.588,1.588,0,0,1,1.432.887l2.117,4.292,4.735.69a1.595,1.595,0,0,1,.882,2.72l-3.425,3.338.81,4.715a1.561,1.561,0,0,1-.347,1.29A1.6,1.6,0,0,1,15.561,18a1.573,1.573,0,0,1-.739-.184l-4.236-2.226L6.351,17.82a1.567,1.567,0,0,1-.74.186,1.6,1.6,0,0,1-1.224-.573,1.563,1.563,0,0,1-.348-1.292l.81-4.715L1.424,8.088a1.595,1.595,0,0,1,.882-2.72l4.734-.69L9.157.387A1.582,1.582,0,0,1,10.584-.5ZM15.561,17a.613.613,0,0,0,.462-.218.568.568,0,0,0,.126-.476l-.9-5.233,3.8-3.7a.595.595,0,0,0-.328-1.014l-5.255-.766L11.119.829A.586.586,0,0,0,10.584.5h0a.581.581,0,0,0-.53.33L7.705,5.591,2.45,6.358a.595.595,0,0,0-.328,1.014l3.8,3.705-.9,5.234a.57.57,0,0,0,.126.478.61.61,0,0,0,.46.218.579.579,0,0,0,.273-.07l4.7-2.472,4.7,2.471A.583.583,0,0,0,15.561,17Z" transform="translate(1.559 200.001)" fill="#f7e71e"/></g></svg>