<svg xmlns="http://www.w3.org/2000/svg" width="20.291" height="19.506" viewBox="0 0 20.291 19.506"><path d="M10.584-1h0A2.085,2.085,0,0,1,12.464.164l2,4.057,4.475.652A2.095,2.095,0,0,1,20.1,8.446L16.861,11.6l.766,4.456a2.092,2.092,0,0,1-3.037,2.207l-4-2.1-4,2.1a2.093,2.093,0,0,1-3.037-2.206L4.312,11.6,1.075,8.446A2.095,2.095,0,0,1,2.235,4.873l4.474-.652,2-4.055A2.079,2.079,0,0,1,10.584-1Zm4.977,17.5a.114.114,0,0,0,.079-.041.073.073,0,0,0,.015-.07L14.712,10.9,18.7,7.013a.083.083,0,0,0,.024-.1.082.082,0,0,0-.074-.064l-5.516-.8-2.465-5A.086.086,0,0,0,10.584,1h0a.079.079,0,0,0-.082.052l-2.465,5-5.515.8a.082.082,0,0,0-.075.064.083.083,0,0,0,.023.1L6.461,10.9l-.944,5.493a.076.076,0,0,0,.016.071.112.112,0,0,0,.077.04.081.081,0,0,0,.039-.012L10.587,13.9l4.934,2.593A.085.085,0,0,0,15.561,16.5Z" transform="translate(-0.441 1.001)" fill="#f7e72c"/></svg>