<svg xmlns="http://www.w3.org/2000/svg" xmlns:xlink="http://www.w3.org/1999/xlink" width="63.612" height="61.917" viewBox="0 0 63.612 61.917"><defs><clipPath id="a"><rect width="63.612" height="61.917" transform="translate(0 0)" fill="none"/></clipPath></defs><g transform="translate(1011 -455)"><g transform="translate(-1011 455)" clip-path="url(#a)"><path d="M31.806,0A32.356,32.356,0,0,1,44.18,2.43,31.762,31.762,0,0,1,54.289,9.06a30.822,30.822,0,0,1,6.82,9.841,30.3,30.3,0,0,1,0,24.115,30.822,30.822,0,0,1-6.82,9.841,31.762,31.762,0,0,1-10.109,6.63,32.715,32.715,0,0,1-24.748,0,31.762,31.762,0,0,1-10.109-6.63A30.822,30.822,0,0,1,2.5,43.015,30.3,30.3,0,0,1,2.5,18.9,30.822,30.822,0,0,1,9.322,9.06,31.762,31.762,0,0,1,19.432,2.43,32.359,32.359,0,0,1,31.806,0Zm0,60.5a30.946,30.946,0,0,0,11.835-2.324A30.351,30.351,0,0,0,53.3,51.84a29.412,29.412,0,0,0,6.509-9.39,28.88,28.88,0,0,0,0-22.985,29.412,29.412,0,0,0-6.509-9.39,30.351,30.351,0,0,0-9.66-6.335,31.3,31.3,0,0,0-23.67,0,30.351,30.351,0,0,0-9.66,6.335A29.412,29.412,0,0,0,3.8,19.466a28.88,28.88,0,0,0,0,22.985,29.412,29.412,0,0,0,6.509,9.39,30.351,30.351,0,0,0,9.66,6.335A30.949,30.949,0,0,0,31.806,60.5Z" fill="#ff75a0"/><path d="M59.691,30.9c0,15.015-12.513,27.187-27.949,27.187S3.793,45.911,3.793,30.9,16.306,3.709,31.742,3.709,59.691,15.881,59.691,30.9" fill="#f1739e"/><path d="M33.147,36.4a6.9,6.9,0,0,0,2.62,3.107" fill="#fff"/><path d="M35.766,40.255a.746.746,0,0,1-.406-.12,7.653,7.653,0,0,1-2.9-3.444.75.75,0,0,1,1.381-.587,6.153,6.153,0,0,0,2.336,2.77.75.75,0,0,1-.407,1.38Z" fill="#f1739e"/><path d="M26.676,42.83a4.574,4.574,0,0,0,1.119,1.8" fill="#fff"/><path d="M27.795,45.381a.748.748,0,0,1-.527-.216,5.34,5.34,0,0,1-1.3-2.1.75.75,0,0,1,1.422-.476,3.833,3.833,0,0,0,.935,1.505.75.75,0,0,1-.527,1.284Z" fill="#f1739e"/><path d="M30.069,39.869a4.574,4.574,0,0,0,1.119,1.8,4.468,4.468,0,0,0,.931.707" fill="#fff"/><path d="M32.118,43.127a.747.747,0,0,1-.371-.1A5.226,5.226,0,0,1,30.66,42.2a5.339,5.339,0,0,1-1.3-2.1.75.75,0,0,1,1.422-.476,3.833,3.833,0,0,0,.935,1.505,3.728,3.728,0,0,0,.776.589.75.75,0,0,1-.372,1.4Z" fill="#f1739e"/></g><g transform="translate(85.462 4.91)"><path d="M43.2,12.011l-5.646-.2.555,4.142H36.687l.028-5.156H43.2Z" transform="translate(-1101.808 452.295)" fill="#fff"/><path d="M36.715,9.8H43.2a1,1,0,0,1,1,1v1.216a1,1,0,0,1-1.036,1L38.7,12.85l.4,2.968a1,1,0,0,1-.991,1.133H36.687a1,1,0,0,1-1-1.005l.028-5.156A1,1,0,0,1,36.715,9.8Z" transform="translate(-1101.808 452.295)" fill="#fff"/><path d="M42.219,21.695q-1.813,13.877-3.633,27.762a1.157,1.157,0,0,1-1.148,1.008H27.919a1.159,1.159,0,0,1-1.153-1.043q-1.382-13.87-2.753-27.736h18.2A.007.007,0,0,1,42.219,21.695Z" transform="translate(-1097.695 449.76)" fill="#fff"/><path d="M24.013,20.686h18.2a1.007,1.007,0,0,1,1,1.138h0q-.916,7.015-1.836,14.032-.9,6.865-1.8,13.73a2.162,2.162,0,0,1-2.139,1.878H27.919a2.152,2.152,0,0,1-2.148-1.943c-.576-5.78-1.158-11.656-1.722-17.338q-.515-5.2-1.031-10.4a1,1,0,0,1,1-1.1Zm17.068,2H25.117q.462,4.65.922,9.3c.563,5.682,1.146,11.558,1.722,17.337a.158.158,0,0,0,.158.142h9.519a.157.157,0,0,0,.156-.137q.9-6.867,1.8-13.732Q40.237,29.14,41.081,22.686Z" transform="translate(-1097.695 449.76)" fill="#fff"/><path d="M.718,0H21.062a.717.717,0,0,1,.717.717v.767a.717.717,0,0,1-.717.717H.718A.718.718,0,0,1,0,1.483V.718A.718.718,0,0,1,.718,0Z" transform="translate(-1075.462 468.245)" fill="#fff"/><path d="M.718-1H21.062A1.719,1.719,0,0,1,22.779.717v.767A1.719,1.719,0,0,1,21.062,3.2H.718A1.72,1.72,0,0,1-1,1.483V.718A1.72,1.72,0,0,1,.718-1ZM20.779,1H1v.2H20.779Z" transform="translate(-1075.462 468.245)" fill="#fff"/></g></g></svg>