<svg xmlns="http://www.w3.org/2000/svg" xmlns:xlink="http://www.w3.org/1999/xlink" width="63.612" height="61.917" viewBox="0 0 63.612 61.917"><defs><clipPath id="a"><rect width="63.612" height="61.917" transform="translate(0 0)" fill="none"/></clipPath></defs><g transform="translate(1009 -533.27)"><g transform="translate(-1009 533.27)" clip-path="url(#a)"><path d="M31.806,0A32.356,32.356,0,0,1,44.18,2.43,31.762,31.762,0,0,1,54.289,9.06a30.822,30.822,0,0,1,6.82,9.841,30.3,30.3,0,0,1,0,24.115,30.822,30.822,0,0,1-6.82,9.841,31.762,31.762,0,0,1-10.109,6.63,32.715,32.715,0,0,1-24.748,0,31.762,31.762,0,0,1-10.109-6.63A30.822,30.822,0,0,1,2.5,43.015,30.3,30.3,0,0,1,2.5,18.9,30.822,30.822,0,0,1,9.322,9.06,31.762,31.762,0,0,1,19.432,2.43,32.359,32.359,0,0,1,31.806,0Zm0,60.5a30.946,30.946,0,0,0,11.835-2.324A30.351,30.351,0,0,0,53.3,51.84a29.412,29.412,0,0,0,6.509-9.39,28.88,28.88,0,0,0,0-22.985,29.412,29.412,0,0,0-6.509-9.39,30.351,30.351,0,0,0-9.66-6.335,31.3,31.3,0,0,0-23.67,0,30.351,30.351,0,0,0-9.66,6.335A29.412,29.412,0,0,0,3.8,19.466a28.88,28.88,0,0,0,0,22.985,29.412,29.412,0,0,0,6.509,9.39,30.351,30.351,0,0,0,9.66,6.335A30.949,30.949,0,0,0,31.806,60.5Z" fill="#ff75a0"/><path d="M59.691,30.9c0,15.015-12.513,27.187-27.949,27.187S3.793,45.911,3.793,30.9,16.306,3.709,31.742,3.709,59.691,15.881,59.691,30.9" fill="#f1739e"/><path d="M33.147,36.4a6.9,6.9,0,0,0,2.62,3.107" fill="#fff"/><path d="M35.766,40.255a.746.746,0,0,1-.406-.12,7.653,7.653,0,0,1-2.9-3.444.75.75,0,0,1,1.381-.587,6.153,6.153,0,0,0,2.336,2.77.75.75,0,0,1-.407,1.38Z" fill="#f1739e"/><path d="M26.676,42.83a4.574,4.574,0,0,0,1.119,1.8" fill="#fff"/><path d="M27.795,45.381a.748.748,0,0,1-.527-.216,5.34,5.34,0,0,1-1.3-2.1.75.75,0,0,1,1.422-.476,3.833,3.833,0,0,0,.935,1.505.75.75,0,0,1-.527,1.284Z" fill="#f1739e"/><path d="M30.069,39.869a4.574,4.574,0,0,0,1.119,1.8,4.468,4.468,0,0,0,.931.707" fill="#fff"/><path d="M32.118,43.127a.747.747,0,0,1-.371-.1A5.226,5.226,0,0,1,30.66,42.2a5.339,5.339,0,0,1-1.3-2.1.75.75,0,0,1,1.422-.476,3.833,3.833,0,0,0,.935,1.505,3.728,3.728,0,0,0,.776.589.75.75,0,0,1-.372,1.4Z" fill="#f1739e"/></g><path d="M234.717,44.361l-32.358,7.47q-.373-5.3-.747-10.607l33.1-7.42Z" transform="translate(-1195.229 527.862)" fill="#fff"/><path d="M202.359,52.831a1,1,0,0,1-1-.93q-.373-5.3-.747-10.607a1,1,0,0,1,.779-1.046l33.1-7.42a1,1,0,0,1,1.219.975l0,10.557a1,1,0,0,1-.775.975l-32.358,7.47A1,1,0,0,1,202.359,52.831Zm.311-10.819q.3,4.291.6,8.581l30.442-7.028,0-8.512Z" transform="translate(-1195.229 527.862)" fill="#fff"/><path d="M233.069,25.6a18.064,18.064,0,0,1,1.408,3.029c-6.707,1.623-28.66,6.919-31.7,7.316-.341.044-1.271.166-1.481-.225-.264-.492.759-1.533,1.38-2.127,3.01-2.882,16.528-14.373,19.85-17.193a31.621,31.621,0,0,1,3.412,2.055A22.325,22.325,0,0,1,233.069,25.6Z" transform="translate(-1195.131 529.618)" fill="#fff"/><path d="M222.527,15.394a1,1,0,0,1,.461.113,32.761,32.761,0,0,1,3.52,2.12,23.45,23.45,0,0,1,7.425,7.465,19.091,19.091,0,0,1,1.486,3.2,1,1,0,0,1-.707,1.308c-10.666,2.581-28.98,6.966-31.8,7.335a6.2,6.2,0,0,1-.8.062,1.746,1.746,0,0,1-1.69-.805,2.013,2.013,0,0,1,.442-2.1,11.066,11.066,0,0,1,1.127-1.22c2.821-2.7,14.853-12.952,19.894-17.233A1,1,0,0,1,222.527,15.394Zm10.6,12.528A17.068,17.068,0,0,0,232.2,26.1a21.374,21.374,0,0,0-6.836-6.828,30.628,30.628,0,0,0-2.713-1.674c-5.289,4.494-16.6,14.137-19.287,16.713-.259.248-.459.454-.613.623C204.981,34.605,215.983,32.065,233.126,27.922Z" transform="translate(-1195.131 529.618)" fill="#fff"/><path d="M234.136,25.994a2.245,2.245,0,1,1-2.245-2.245h.068A2.356,2.356,0,0,1,234.136,25.994Z" transform="translate(-1202.887 527.609)" fill="#fff"/><path d="M231.891,22.749H232a3.415,3.415,0,0,1,2.041.864,3.145,3.145,0,0,1,1.1,2.38,3.245,3.245,0,1,1-3.245-3.245Zm.034,2h-.034a1.245,1.245,0,1,0,1.245,1.245A1.377,1.377,0,0,0,231.925,24.749Z" transform="translate(-1202.887 527.609)" fill="#f1739e"/><path d="M231.916,23.747a1,1,0,0,1-.929-.629,3.012,3.012,0,0,1,.023-2.347,3.17,3.17,0,0,1,3.518-1.628,1,1,0,0,1-.368,1.966,1.212,1.212,0,0,0-1.337.508,1.029,1.029,0,0,0,.023.76,1,1,0,0,1-.928,1.371Z" transform="translate(-1203.463 528.611)" fill="#f1739e"/></g></svg>