<svg xmlns="http://www.w3.org/2000/svg" width="30" height="30" viewBox="0 0 30 30"><g transform="translate(-297 -284.805)"><path d="M15,2A13,13,0,0,0,5.808,24.192,13,13,0,0,0,24.192,5.808,12.915,12.915,0,0,0,15,2m0-2A15,15,0,1,1,0,15,15,15,0,0,1,15,0Z" transform="translate(297 284.805)" fill="#ea5d89"/><g transform="translate(305 292.805)"><path d="M14.536,19.979H4.442A2.445,2.445,0,0,1,2,17.536V7.442A2.445,2.445,0,0,1,4.442,5H9.489a1,1,0,0,1,0,2H4.442A.443.443,0,0,0,4,7.442V17.536a.443.443,0,0,0,.442.442H14.536a.443.443,0,0,0,.442-.442V12.489a1,1,0,1,1,2,0v5.047A2.445,2.445,0,0,1,14.536,19.979Z" transform="translate(-3 -4.47)" fill="#ea5d89"/><path d="M20.652,1.818a2.53,2.53,0,0,1,1.789,4.318l-6.85,6.85a1,1,0,0,1-.465.263l-2.884.721a1,1,0,0,1-1.213-1.213l.721-2.884a1,1,0,0,1,.263-.465l6.85-6.85A2.513,2.513,0,0,1,20.652,1.818Zm-6.28,9.558,6.654-6.654a.53.53,0,1,0-.749-.749l-6.654,6.654-.25,1Z" transform="translate(-7.674 -2.818)" fill="#ea5d89"/></g></g></svg>