<svg xmlns="http://www.w3.org/2000/svg" xmlns:xlink="http://www.w3.org/1999/xlink" width="52.589" height="52.589" viewBox="0 0 52.589 52.589"><defs><clipPath id="a"><rect width="52.589" height="52.589" fill="none"/></clipPath></defs><g transform="translate(-177.5 -1938)"><g transform="translate(177.5 1938)"><g transform="translate(0 0)" clip-path="url(#a)"><path d="M26.563,0A26.571,26.571,0,0,1,36.9,51.041,26.571,26.571,0,0,1,16.224,2.088,26.4,26.4,0,0,1,26.563,0Zm0,51.745A25.18,25.18,0,0,0,44.369,8.759,25.18,25.18,0,0,0,8.759,44.37,25.014,25.014,0,0,0,26.563,51.745Z" transform="translate(-0.27 -0.27)" fill="#95e1d3"/><path d="M50.266,26.817A23.448,23.448,0,1,1,26.817,3.369,23.448,23.448,0,0,1,50.266,26.817" transform="translate(-0.523 -0.523)" fill="#95e1d3"/><path d="M33.218,35.976l-2.105,1.272" transform="translate(-4.826 -5.58)" fill="#ff75a0"/></g></g><g transform="translate(188.571 1949.071)"><path d="M.384,29.446A1.384,1.384,0,0,1-1,28.062V.384a1.384,1.384,0,0,1,2.768,0V28.062A1.384,1.384,0,0,1,.384,29.446Z" transform="translate(14.839 1)" fill="#fff"/><path d="M1.384,30.446A1.384,1.384,0,0,1,0,29.062V1.384a1.384,1.384,0,0,1,2.768,0V29.062A1.384,1.384,0,0,1,1.384,30.446Z" transform="translate(30.446 13.839) rotate(90)" fill="#fff"/></g></g></svg>