<svg xmlns="http://www.w3.org/2000/svg" xmlns:xlink="http://www.w3.org/1999/xlink" width="63.612" height="61.917" viewBox="0 0 63.612 61.917"><defs><clipPath id="a"><rect width="63.612" height="61.917" transform="translate(0 0)" fill="none"/></clipPath></defs><g transform="translate(0 0)"><g clip-path="url(#a)"><path d="M31.806,0A32.356,32.356,0,0,1,44.18,2.43,31.762,31.762,0,0,1,54.289,9.06a30.822,30.822,0,0,1,6.82,9.841,30.3,30.3,0,0,1,0,24.115,30.822,30.822,0,0,1-6.82,9.841,31.762,31.762,0,0,1-10.109,6.63,32.715,32.715,0,0,1-24.748,0,31.762,31.762,0,0,1-10.109-6.63A30.822,30.822,0,0,1,2.5,43.015,30.3,30.3,0,0,1,2.5,18.9,30.822,30.822,0,0,1,9.322,9.06,31.762,31.762,0,0,1,19.432,2.43,32.359,32.359,0,0,1,31.806,0Zm0,60.5a30.946,30.946,0,0,0,11.835-2.324A30.351,30.351,0,0,0,53.3,51.84a29.412,29.412,0,0,0,6.509-9.39,28.88,28.88,0,0,0,0-22.985,29.412,29.412,0,0,0-6.509-9.39,30.351,30.351,0,0,0-9.66-6.335,31.3,31.3,0,0,0-23.67,0,30.351,30.351,0,0,0-9.66,6.335A29.412,29.412,0,0,0,3.8,19.466a28.88,28.88,0,0,0,0,22.985,29.412,29.412,0,0,0,6.509,9.39,30.351,30.351,0,0,0,9.66,6.335A30.949,30.949,0,0,0,31.806,60.5Z" fill="#ff75a0"/><path d="M59.691,30.9c0,15.015-12.513,27.187-27.949,27.187S3.793,45.911,3.793,30.9,16.306,3.709,31.742,3.709,59.691,15.881,59.691,30.9" fill="#f1739e"/><path d="M36.389,39.382c-1.186.939-2.606,1.92-4.27,2.993q-1.825,1.167-4.037,2.508c-.673.413-1.369.836-2.1,1.277-8.7,5.269-9.85,4.576-10.172,4.291-.394-.35-1.1-1.451,2.686-10.067,4.91-11.168,7.414-16.873,12.242-17.588a7.839,7.839,0,0,1,3.631.366A9.076,9.076,0,0,1,32,16.311c.272-2.214,1.636-5.133,3.289-5.166,1.79-.036,3.265,3.321,3.664,5.625a10.465,10.465,0,0,1-1.308,6.837c.614-1.15,6.6-12.2,10.491-11.146a2.138,2.138,0,0,1,1.312,1.032c1.486,3.118-7.426,10.128-9.676,11.858a8.809,8.809,0,0,1,5.719-2.034c2.382.079,5.519,1.28,5.628,2.872.113,1.641-3.012,3.348-5.625,3.663A8.748,8.748,0,0,1,40.3,28.78a8.746,8.746,0,0,1,.6,3.933c-.21,2.438-1.7,4.44-4.514,6.669" fill="#fff"/><path d="M16.446,51.147a1.344,1.344,0,0,1-.965-.321c-.792-.7-1.029-2.479,2.56-10.643l.014-.031c2.506-5.7,4.317-9.819,6.179-12.757,2-3.16,3.986-4.73,6.434-5.093a7.483,7.483,0,0,1,1.1-.081,8.2,8.2,0,0,1,1.33.111,9,9,0,0,1-1.6-6.081,10.022,10.022,0,0,1,1.19-3.59c.748-1.3,1.642-2,2.586-2.016h.039c2.126,0,3.694,3.532,4.128,6.04a9.935,9.935,0,0,1,.088,2.734c.571-.889,1.217-1.836,1.9-2.743a21.012,21.012,0,0,1,2.97-3.284,5.186,5.186,0,0,1,3.189-1.5,2.575,2.575,0,0,1,.673.088,2.618,2.618,0,0,1,1.632,1.3c.716,1.5-.333,3.687-3.207,6.682-1.013,1.056-2.146,2.1-3.242,3.046a8.384,8.384,0,0,1,1.783-.192c.091,0,.184,0,.275,0a10.465,10.465,0,0,1,3.86.915c1.408.654,2.186,1.492,2.25,2.423.066.956-.654,1.946-2.028,2.789a10.517,10.517,0,0,1-4.036,1.4,8.428,8.428,0,0,1-1.007.061,9.157,9.157,0,0,1-3.411-.683,8.933,8.933,0,0,1,.269,3.032c-.214,2.48-1.62,4.579-4.7,7.017-1.125.891-2.495,1.851-4.309,3.021-1.2.764-2.519,1.587-4.048,2.515-.585.359-1.233.754-2.1,1.277C21.25,49.613,17.954,51.147,16.446,51.147ZM31.769,23.221a6.482,6.482,0,0,0-.954.07c-2.164.32-3.879,1.708-5.737,4.639A106.6,106.6,0,0,0,18.97,40.554l-.014.031c-3.517,8-3.041,9.288-2.812,9.492.023.02.078.069.3.069.744,0,2.939-.573,9.28-4.414.863-.523,1.509-.916,2.095-1.275,1.525-.926,2.842-1.744,4.029-2.5,1.785-1.151,3.129-2.093,4.229-2.964,2.845-2.25,4.138-4.14,4.326-6.32a8.227,8.227,0,0,0-.571-3.707.5.5,0,0,1,.7-.622,8.422,8.422,0,0,0,4,1.068,7.424,7.424,0,0,0,.887-.053c2.554-.308,5.268-1.947,5.186-3.132-.036-.53-.646-1.107-1.674-1.584a9.412,9.412,0,0,0-3.472-.822c-.08,0-.161,0-.242,0a8.175,8.175,0,0,0-4.8,1.663l-.351.272a.5.5,0,0,1-.62-.785c.122-.1.242-.192.368-.284,6.482-5.038,10-9.241,9.172-10.97A1.651,1.651,0,0,0,48,12.944a1.58,1.58,0,0,0-.414-.054c-.934,0-2.622.761-5.361,4.388a54.276,54.276,0,0,0-3.929,6.16c-.072.14-.146.276-.225.415a.5.5,0,0,1-.876-.482c.045-.084.119-.221.218-.4a9.769,9.769,0,0,0,1.038-6.114c-.426-2.459-1.86-5.21-3.143-5.21H35.3c-.558.011-1.192.563-1.739,1.515a8.969,8.969,0,0,0-1.064,3.212,8.5,8.5,0,0,0,2.253,6.457.5.5,0,0,1-.531.807A7.739,7.739,0,0,0,31.769,23.221Z" fill="#f1739e"/><path d="M33.147,36.4a6.9,6.9,0,0,0,2.62,3.107" fill="#fff"/><path d="M35.766,40.255a.746.746,0,0,1-.406-.12,7.653,7.653,0,0,1-2.9-3.444.75.75,0,0,1,1.381-.587,6.153,6.153,0,0,0,2.336,2.77.75.75,0,0,1-.407,1.38Z" fill="#f1739e"/><path d="M26.676,42.83a4.574,4.574,0,0,0,1.119,1.8" fill="#fff"/><path d="M27.795,45.381a.748.748,0,0,1-.527-.216,5.34,5.34,0,0,1-1.3-2.1.75.75,0,0,1,1.422-.476,3.833,3.833,0,0,0,.935,1.505.75.75,0,0,1-.527,1.284Z" fill="#f1739e"/><path d="M30.069,39.869a4.574,4.574,0,0,0,1.119,1.8,4.468,4.468,0,0,0,.931.707" fill="#fff"/><path d="M32.118,43.127a.747.747,0,0,1-.371-.1A5.226,5.226,0,0,1,30.66,42.2a5.339,5.339,0,0,1-1.3-2.1.75.75,0,0,1,1.422-.476,3.833,3.833,0,0,0,.935,1.505,3.728,3.728,0,0,0,.776.589.75.75,0,0,1-.372,1.4Z" fill="#f1739e"/></g></g></svg>