<?xml version="1.0" encoding="UTF-8"?>
<svg id="Layer_4" data-name="Layer 4" xmlns="http://www.w3.org/2000/svg" viewBox="0 0 211.29 217.32">
  <defs>
    <style>
      .cls-1 {
        fill: lime;
      }

      .cls-2 {
        fill: aqua;
      }

      .cls-3 {
        fill: blue;
      }

      .cls-4 {
        fill: #f7931e;
      }

      .cls-5 {
        fill: #eaffd0;
      }

      .cls-6 {
        fill: #fff;
      }

      .cls-7 {
        fill: #fcee21;
      }

      .cls-8 {
        fill: #fce38a;
      }

      .cls-9 {
        fill: #ff75a0;
      }

      .cls-10 {
        fill: #95e1d3;
      }
    </style>
  </defs>
  <g id="_2" data-name="2">
    <ellipse class="cls-4" cx="106.87" cy="112.72" rx="90.24" ry="64.24"/>
    <g>
      <path class="cls-8" d="m198.64,112.34c-2.02,6.96-6.88,12.62-6.88,12.62-7,8.15-13.51,7.63-16.82,15.29-1.43,3.3-.63,4.36-2.37,7.61-.49.91-3.08,5.73-6.87,6.12-3.11.32-4.06-2.66-7.76-4.48-7.93-3.89-19.6,1.9-25.82,6.81-5.79,4.57-4.95,6.87-8.41,7.65-7.68,1.73-11.73-9.38-23.71-9.94-2.19-.1-6.58.12-11.3,1.96-4.65,1.82-5.44,3.6-9,4-3.43.38-8.3-.65-11-4-3.44-4.26-.47-8.65-4-12-2.43-2.3-6.32-2.59-9-2-6.32,1.39-8.1,8.15-10.76,7.45-2.65-.69-1.08-7.47-5.24-13.45-2.8-4.03-5.6-3.65-10.06-7.2,0,0-7.37-5.25-9.94-16.44-4.6-19.99,14.38-37.96,19.12-42.44,21.97-20.79,51.3-21.19,68.06-21.41,15.97-.22,43.89-.59,67.3,18.35,11.88,9.61,29.12,29.49,24.47,45.5Z"/>
      <path class="cls-6" d="m122.07,165.64c-3.47,0-6.27-2.13-9.21-4.37-3.39-2.58-7.24-5.5-12.94-5.76-1.24-.06-5.68-.1-10.68,1.86-1.87.73-3.08,1.46-4.14,2.1-1.54.93-2.88,1.73-5.24,1.99-3.96.44-9.3-.79-12.33-4.55-2-2.48-2.16-5.05-2.29-7.12-.12-1.93-.22-3.45-1.58-4.74-1.95-1.85-5.25-2.15-7.65-1.62-3.02.67-4.84,2.76-6.45,4.61-1.51,1.73-2.93,3.38-5.02,2.83-2.18-.57-2.6-2.88-3.08-5.55-.45-2.5-1.01-5.62-3.01-8.49-1.44-2.06-2.82-2.77-4.74-3.76-1.44-.74-3.07-1.58-5.02-3.13-.26-.18-7.8-5.67-10.47-17.28-2.19-9.5-.57-24.83,19.55-43.87,22.39-21.19,52.76-21.6,69.07-21.82,16.62-.22,44.44-.6,68.26,18.69,11.62,9.4,29.95,29.9,24.97,47.09-2.08,7.19-6.98,12.94-7.18,13.18-3.3,3.85-6.47,5.83-9.26,7.57-3.18,1.99-5.69,3.56-7.32,7.34-.58,1.35-.75,2.26-.92,3.22-.22,1.24-.45,2.53-1.51,4.5-1.29,2.4-4.05,6.5-8.04,6.9-2.5.25-3.98-1.07-5.41-2.34-.9-.8-1.83-1.63-3.17-2.28-7.72-3.78-19.22,2.69-24.23,6.64-2.59,2.04-3.74,3.56-4.66,4.77-1.07,1.41-2,2.63-4.35,3.16-.68.15-1.33.22-1.95.22Zm-22.97-13.15c.4,0,.73,0,.95.02,6.63.31,11.06,3.67,14.61,6.37,3.16,2.4,5.65,4.29,8.69,3.61,1.29-.29,1.65-.77,2.62-2.05.97-1.28,2.3-3.03,5.19-5.31,5.93-4.68,18.37-11.41,27.41-6.98,1.7.83,2.89,1.89,3.84,2.74,1.34,1.19,1.99,1.71,3.11,1.6,1.91-.19,3.98-2.14,5.7-5.34.83-1.55,1-2.5,1.2-3.61.18-1.04.39-2.21,1.12-3.88,2-4.64,5.15-6.61,8.48-8.69,2.61-1.63,5.57-3.49,8.58-6.99.05-.05,4.68-5.51,6.58-12.06h0c4.56-15.7-13.69-35.59-23.97-43.92-22.98-18.6-50.11-18.24-66.33-18.02-17.02.23-45.51.61-67.05,21-19.09,18.07-20.7,32.28-18.69,41.02,2.4,10.45,9.28,15.51,9.35,15.56,1.78,1.41,3.2,2.14,4.58,2.85,2.04,1.05,3.97,2.03,5.83,4.71,2.37,3.41,3.03,7.03,3.5,9.68.21,1.17.53,2.94.88,3.18.37-.03,1.35-1.15,1.99-1.89,1.72-1.98,4.07-4.69,8.07-5.57,2.94-.65,7.41-.41,10.35,2.38,2.21,2.1,2.37,4.56,2.5,6.72.12,1.9.23,3.69,1.63,5.42,2.31,2.86,6.63,3.79,9.67,3.45,1.71-.19,2.63-.75,4.03-1.58,1.11-.67,2.49-1.5,4.59-2.32,4.65-1.82,8.89-2.09,10.96-2.09Z"/>
    </g>
    <ellipse class="cls-4" cx="109.16" cy="100.48" rx="31.35" ry="17.59"/>
    <g>
      <path class="cls-3" d="m155.26,69.13c1.66,1.97,3.32,3.93,4.99,5.9"/>
      <path class="cls-10" d="m160.25,76.51c-.42,0-.84-.18-1.13-.53l-4.99-5.9c-.53-.63-.45-1.56.17-2.09.63-.53,1.56-.45,2.09.17l4.99,5.9c.53.63.45,1.56-.17,2.09-.28.24-.62.35-.96.35Z"/>
    </g>
    <g>
      <path class="cls-3" d="m109.88,138.5c-.71-2.47-1.42-4.95-2.13-7.42"/>
      <path class="cls-5" d="m109.88,139.98c-.65,0-1.24-.42-1.43-1.08l-2.13-7.42c-.23-.79.23-1.61,1.02-1.84.79-.23,1.61.23,1.84,1.02l2.13,7.42c.23.79-.23,1.61-1.02,1.84-.14.04-.27.06-.41.06Z"/>
    </g>
    <g>
      <path class="cls-3" d="m86.19,144.29c1.66,1.97,3.32,3.93,4.99,5.9"/>
      <path class="cls-9" d="m91.17,151.67c-.42,0-.84-.18-1.13-.53l-4.99-5.9c-.53-.63-.45-1.56.17-2.09.63-.53,1.57-.45,2.09.18l4.99,5.9c.53.63.45,1.56-.17,2.09-.28.24-.62.35-.96.35Z"/>
    </g>
    <g>
      <path class="cls-3" d="m154.97,86.78c-1.71,1.92-3.42,3.84-5.14,5.77"/>
      <path class="cls-1" d="m149.83,94.03c-.35,0-.7-.12-.99-.38-.61-.55-.67-1.48-.12-2.1l5.13-5.77c.55-.61,1.48-.67,2.1-.12s.67,1.48.12,2.1l-5.14,5.77c-.29.33-.7.5-1.11.5Z"/>
    </g>
    <g>
      <path class="cls-3" d="m63.27,73.73c1.64-1.98,3.29-3.96,4.93-5.94"/>
      <path class="cls-9" d="m63.27,75.22c-.33,0-.67-.11-.95-.34-.63-.52-.72-1.46-.19-2.09l4.93-5.94c.52-.63,1.46-.72,2.09-.19.63.52.72,1.46.19,2.09l-4.93,5.94c-.29.35-.72.54-1.14.54Z"/>
    </g>
    <g>
      <path class="cls-3" d="m132.45,138.57c.05,2.57.09,5.15.14,7.72"/>
      <path class="cls-10" d="m132.59,147.78c-.81,0-1.47-.65-1.48-1.46l-.14-7.72c-.01-.82.64-1.5,1.46-1.51.77,0,1.5.64,1.51,1.46l.14,7.72c.01.82-.64,1.5-1.46,1.51h-.03Z"/>
    </g>
    <g>
      <path class="cls-3" d="m63.68,112.12c-1.01,2.37-2.03,4.73-3.04,7.1"/>
      <path class="cls-1" d="m60.64,120.7c-.2,0-.39-.04-.58-.12-.75-.32-1.1-1.2-.78-1.95l3.04-7.1c.32-.75,1.2-1.1,1.95-.78.75.32,1.1,1.2.78,1.95l-3.04,7.1c-.24.56-.79.9-1.37.9Z"/>
    </g>
    <g>
      <path class="cls-3" d="m79.05,69.91c2.5-.6,5.01-1.2,7.51-1.79"/>
      <path class="cls-2" d="m79.05,71.4c-.67,0-1.28-.46-1.44-1.14-.19-.8.3-1.6,1.1-1.79l7.51-1.79c.79-.19,1.6.3,1.79,1.1.19.8-.3,1.6-1.1,1.79l-7.51,1.79c-.12.03-.23.04-.35.04Z"/>
    </g>
    <g>
      <path class="cls-3" d="m42.08,82.13c1.66,1.97,3.32,3.93,4.99,5.9"/>
      <path class="cls-5" d="m47.07,89.51c-.42,0-.84-.18-1.13-.53l-4.99-5.9c-.53-.63-.45-1.56.17-2.09.63-.53,1.56-.45,2.09.17l4.99,5.9c.53.63.45,1.56-.17,2.09-.28.24-.62.35-.96.35Z"/>
    </g>
    <g>
      <path class="cls-3" d="m119.32,66.07c1.66,1.97,3.32,3.93,4.99,5.9"/>
      <path class="cls-7" d="m124.31,73.45c-.42,0-.84-.18-1.13-.53l-4.99-5.9c-.53-.63-.45-1.56.17-2.09.63-.53,1.56-.45,2.09.17l4.99,5.9c.53.63.45,1.56-.18,2.09-.28.24-.62.35-.96.35Z"/>
    </g>
    <g>
      <path class="cls-3" d="m52.72,116.02c-2.54.42-5.08.83-7.62,1.25"/>
      <path class="cls-9" d="m45.1,118.76c-.71,0-1.34-.52-1.46-1.25-.13-.81.42-1.57,1.23-1.7l7.62-1.25c.8-.13,1.57.42,1.71,1.23.13.81-.42,1.57-1.23,1.71l-7.62,1.25c-.08.01-.16.02-.24.02Z"/>
    </g>
    <g>
      <path class="cls-3" d="m103.79,54.61c-.73,2.47-1.46,4.94-2.19,7.41"/>
      <path class="cls-1" d="m101.6,63.5c-.14,0-.28-.02-.42-.06-.79-.23-1.24-1.06-1-1.84l2.18-7.41c.23-.79,1.06-1.24,1.84-1,.79.23,1.24,1.06,1,1.84l-2.19,7.41c-.19.65-.78,1.06-1.42,1.06Z"/>
    </g>
    <g>
      <path class="cls-3" d="m142.78,115.65c.3,2.56.6,5.11.89,7.67"/>
      <path class="cls-1" d="m143.67,124.81c-.74,0-1.38-.56-1.47-1.31l-.89-7.67c-.1-.81.49-1.55,1.3-1.65.82-.09,1.55.49,1.65,1.3l.89,7.67c.09.81-.49,1.55-1.3,1.65-.06,0-.12,0-.17,0Z"/>
    </g>
    <g>
      <path class="cls-3" d="m184.07,105.29c1.66,1.97,3.32,3.93,4.99,5.9"/>
      <path class="cls-9" d="m189.06,112.67c-.42,0-.84-.18-1.13-.53l-4.99-5.9c-.53-.63-.45-1.56.17-2.09.63-.53,1.56-.45,2.09.17l4.99,5.9c.53.63.45,1.56-.17,2.09-.28.24-.62.35-.96.35Z"/>
    </g>
    <g>
      <path class="cls-3" d="m163.24,123.7c2.46-.77,4.92-1.53,7.37-2.3"/>
      <path class="cls-10" d="m163.24,125.18c-.63,0-1.22-.41-1.42-1.04-.24-.78.19-1.62.98-1.86l7.37-2.3c.78-.24,1.62.19,1.86.98.24.78-.19,1.62-.98,1.86l-7.37,2.3c-.15.05-.3.07-.44.07Z"/>
    </g>
    <ellipse class="cls-6" cx="109.16" cy="110.42" rx="23.71" ry="6.88"/>
    <g>
      <ellipse class="cls-9" cx="87.94" cy="40.37" rx="38.98" ry="14.94" transform="translate(29.47 117.47) rotate(-77.48)"/>
      <path class="cls-6" d="m80.77,80.74c-.59,0-1.17-.06-1.74-.19-9.53-2.12-12.88-20.99-7.79-43.89C76.32,13.75,87.35-1.92,96.87.19c4.84,1.07,8.22,6.49,9.52,15.24,1.2,8.06.58,18.23-1.73,28.65-4.78,21.52-14.79,36.66-23.89,36.66ZM95.1,4.35c-5.95,0-15.12,13.03-19.61,33.25-4.7,21.17-1.41,37.39,4.48,38.7,5.89,1.31,15.74-11.99,20.44-33.16,2.2-9.91,2.8-19.52,1.67-27.07-.99-6.65-3.29-10.99-6.16-11.63-.27-.06-.54-.09-.82-.09Z"/>
    </g>
    <g>
      <g>
        <path class="cls-9" d="m120.07,22.01c-18.87,12.05-9.49,56.95,0,58.56,10.37,1.76,33.5-46.08,21.72-58.56-4.87-5.16-15.46-3.99-21.72,0Z"/>
        <path class="cls-6" d="m120.64,82.79c-.31,0-.62-.02-.93-.08-5.6-.95-9.52-10.74-11.31-19.59-1.66-8.19-1.87-16.66-.58-23.86,1.59-8.87,5.42-15.47,11.08-19.09h0c7.28-4.65,18.85-5.62,24.48.34,3.74,3.96,4.78,11.04,3,20.45-1.44,7.63-4.7,16.56-8.94,24.5-2.85,5.34-10.02,17.32-16.8,17.32Zm.61-58.95c-10.02,6.4-11.53,23.9-8.58,38.41,2.15,10.61,5.84,15.84,7.77,16.16,1.84.31,7.01-3.49,13.17-15.01,7.87-14.72,12.5-33.68,6.61-39.91-3.97-4.2-13.29-3.29-18.97.34h0Z"/>
      </g>
      <g>
        <path class="cls-9" d="m120.07,22.01c15.85,24.02,22.88,29.15,26.09,27.8,5.06-2.14,7.24-23.3-5.22-30.05-6.13-3.32-14.29-2.33-20.87,2.26Z"/>
        <path class="cls-6" d="m145.1,51.52c-3.73,0-10.54-4.83-26.28-28.69l-.8-1.22,1.2-.83c7.11-4.95,15.92-5.87,22.44-2.34,7.91,4.28,10.34,13.76,9.98,21.21-.21,4.46-1.62,10.16-4.89,11.54-.48.2-1.02.34-1.64.34Zm-22.96-29.08c17.28,25.96,22.29,26.47,23.43,25.99,1.12-.47,2.81-3.55,3.07-8.93.32-6.54-1.73-14.81-8.42-18.43-5.17-2.8-12.13-2.24-18.08,1.37Z"/>
      </g>
    </g>
    <g>
      <path class="cls-9" d="m161.23,104.99c-8.34,23.21-98.83,23.21-107.17,0-5.27-14.67,18.71-48.55,53.58-48.55,34.87,0,58.85,33.88,53.58,48.55Z"/>
      <path class="cls-6" d="m107.65,124.58c-12.98,0-25.45-1.58-35.12-4.44-11.24-3.33-18.33-8.31-20.52-14.41-2.34-6.52.19-16.01,6.77-25.37,8.88-12.62,26.37-26.1,48.86-26.1s39.98,13.48,48.86,26.1c6.58,9.36,9.11,18.84,6.77,25.36h0c-2.19,6.1-9.28,11.08-20.52,14.41-9.66,2.86-22.13,4.44-35.11,4.44Zm0-65.96c-20.82,0-37.05,12.53-45.3,24.25-5.68,8.08-8.07,16.28-6.24,21.39,3.38,9.4,24.57,15.97,51.54,15.97,26.96,0,48.16-6.57,51.53-15.97h0c1.84-5.11-.55-13.31-6.24-21.39-8.25-11.72-24.48-24.25-45.3-24.25Z"/>
    </g>
    <circle class="cls-6" cx="120.65" cy="92.3" r="2.44"/>
    <circle class="cls-6" cx="96.53" cy="92.3" r="2.44"/>
    <g>
      <path class="cls-9" d="m87.5,111.56c.52,3.02-.7,6.98-3.03,7.93-2.01.82-3.3-1.24-6.52-.7-3.19.53-3.52,2.83-5.86,2.71-2.83-.14-3.16-3.55-6.47-4.11-2.74-.46-3.92,1.64-5.92.87-2.1-.81-3.31-4.13-3.01-6.69.63-5.47,8.43-9.94,15.4-9.93,6.68,0,14.4,4.11,15.4,9.93Z"/>
      <path class="cls-6" d="m72.27,123.67c-.09,0-.19,0-.29,0-2.3-.12-3.6-1.55-4.54-2.59-.83-.92-1.3-1.4-2.18-1.55-.72-.12-1.19.06-2.04.41-1.05.44-2.49,1.04-4.31.34-3.21-1.24-4.78-5.62-4.39-8.97.81-6.99,9.9-11.86,17.55-11.86h.01c7.5,0,16.34,4.73,17.54,11.74h0c.66,3.86-.93,8.92-4.35,10.32-1.74.71-3.21.19-4.29-.19-.89-.32-1.6-.57-2.69-.39-1.04.17-1.58.6-2.25,1.15-.84.67-1.96,1.59-3.79,1.59Zm-7.42-8.54c.36,0,.74.03,1.14.1,2.41.41,3.72,1.86,4.68,2.92.81.89,1.09,1.14,1.53,1.16.26.02.39-.03,1.12-.62.89-.72,2.1-1.7,4.28-2.06,2.19-.36,3.74.18,4.86.58.82.29,1.02.33,1.19.26,1.08-.44,2.1-3.21,1.7-5.54h0c-.8-4.64-7.66-8.12-13.26-8.12h-.01c-6.21,0-12.76,3.96-13.23,8-.22,1.86.74,4.06,1.64,4.4.14.05.29.02,1.05-.3.78-.33,1.88-.79,3.3-.79Z"/>
    </g>
    <g>
      <path class="cls-9" d="m160.31,111.56c.52,3.02-.7,6.98-3.03,7.93-2.01.82-3.3-1.24-6.52-.7-3.19.53-3.52,2.83-5.86,2.71-2.83-.14-3.16-3.55-6.47-4.11-2.74-.46-3.92,1.64-5.92.87-2.1-.81-3.31-4.13-3.01-6.69.63-5.47,8.43-9.94,15.4-9.93,6.68,0,14.4,4.11,15.4,9.93Z"/>
      <path class="cls-6" d="m145.08,123.67c-.09,0-.19,0-.29,0-2.3-.12-3.59-1.55-4.54-2.59-.83-.92-1.3-1.4-2.18-1.55-.71-.12-1.19.06-2.04.41-1.05.44-2.49,1.04-4.31.34-3.21-1.24-4.78-5.62-4.39-8.97.81-6.99,9.9-11.86,17.55-11.86h.01c7.5,0,16.34,4.73,17.55,11.74h0c.66,3.86-.93,8.92-4.35,10.31-1.75.71-3.21.19-4.29-.19-.9-.32-1.6-.57-2.69-.39-1.04.17-1.58.6-2.25,1.15-.84.68-1.96,1.59-3.79,1.59Zm-7.42-8.54c.36,0,.74.03,1.14.1,2.41.41,3.72,1.86,4.68,2.92.81.89,1.09,1.14,1.53,1.16.27.02.39-.03,1.12-.62.89-.72,2.1-1.7,4.27-2.06,2.2-.36,3.74.18,4.86.58.81.29,1.01.33,1.19.26,1.08-.44,2.1-3.21,1.7-5.54-.8-4.64-7.66-8.12-13.26-8.12h-.01c-6.21,0-12.76,3.96-13.23,8-.22,1.86.74,4.06,1.64,4.4.14.05.29.02,1.05-.3.78-.33,1.88-.79,3.3-.79Z"/>
    </g>
    <path class="cls-6" d="m113.83,99.88c.61,1.56-1.66,5.29-5.29,5.29s-5.89-3.72-5.29-5.29c.93-2.39,9.65-2.39,10.58,0Z"/>
  </g>
  <g>
    <path class="cls-9" d="m20.18,199.18c-3.66-1.81-5.47-4.67-6.99-7.34-2.63.96-5.53,1.01-8.67-.55-3.9-1.93-5.33-4.86-4.08-7.38s4.45-3.15,7.86-1.46c2.04,1.01,3.59,2.56,4.93,4.27,4.67-4.22,9.83-11.42,16.02-11.4.9,0,1.4.13,1.92.38.59.29.9.62.76.9-.17.35-1.09.55-2.65,1.69-3.86,2.84-8.1,8.96-13.31,12.18,1.38,1.9,2.84,3.63,4.85,4.62,4.28,2.12,9.81.16,12.76-5.78,3.47-6.99.85-14.56-6.16-18.03-5.66-2.81-11.26-1.49-13.19,2.39-1.08,2.17-.37,3.87,1.22,4.65,1.1.55,1.99.33,2.47.22.19-.04.29-.07.43,0,.24.12.31.42.05.94-.85,1.71-3.88,3.31-7.02,1.75-2.94-1.45-4.16-4.8-2.44-8.26,2.81-5.66,11.43-7.53,19.55-3.51,10.05,4.98,12.8,15.74,8.79,23.82-3.67,7.41-11.14,8.85-17.12,5.89Zm-8.92-10.82c-.86-1.38-1.83-2.56-3.17-3.23-1.79-.89-3.23-.42-3.82.76-.61,1.22.01,2.66,1.57,3.43,1.76.87,3.54.32,5.43-.97Z"/>
    <path class="cls-9" d="m50.11,200.22c.22-.17.48-.21.66-.15.26.09.4.38.29.71-.06.19-.16.36-.39.57-4.42,4.07-8.33,4.07-10.74,3.25-2.48-.84-4.53-3.46-3.33-7.01,1.51-4.47,6.81-7.75,10.86-6.38,2.3.78,3.13,2.66,2.57,4.33-.85,2.51-4.52,3.99-9.09,3.07-.3,1.63.03,3.06,1.67,3.61,1.21.41,3.81.75,7.51-2Zm-8.75-3.12c2.27.15,4.84-.96,5.49-2.88.26-.78-.03-1.24-.39-1.37-1.31-.44-3.99,1.7-5.1,4.25Z"/>
    <path class="cls-9" d="m53.52,199.68c-.29-1.74-.69-3.5-.33-4.82.46-1.7,2.29-3.3,4.15-2.8,1.27.34,1.5,1.38,1.24,2.36-.28,1.02-1.13,2.12-2.24,2.83.32,1.02.82,2,1.14,3.02,3.39.47,6.65-.22,8.08-.81.27-.13.56-.13.74-.08.26.07.37.26.3.52-.05.19-.23.42-.54.66-1.22.96-5.11,1.61-8.19,1.5.04.58,0,1.17-.17,1.81-.83,3.05-4.05,4.93-7.73,3.93-3.09-.83-4.06-3-3.55-4.88.66-2.45,3.61-3.75,7.11-3.25Zm.18,1.83c-2.22-.2-3.67.87-4.02,2.19-.27.98.13,1.89,1.02,2.14,1.15.31,2.4-.6,2.85-2.26.17-.64.21-1.36.16-2.06Z"/>
    <path class="cls-9" d="m71.08,206.51c-.79-.17-1.64-.42-2.44-.75,0,.16-.03.35-.07.5-.65,3.09-3.76,5.15-7.49,4.37-3.13-.66-4.23-2.76-3.83-4.67.52-2.48,3.46-4.3,6.91-3.66-.39-1.72-.89-3.46-.61-4.79.36-1.72,2.1-3.43,3.98-3.03,1.28.27,1.58,1.29,1.37,2.28-.22,1.03-1.01,2.18-2.08,2.95.5,1.38,1.33,2.67,1.7,4.1,1.16.64,2.45,1.07,3.62,1.32.26.06.81.25.69.82-.17.8-1.16.67-1.77.55Zm-6.61-2.3c-2.26-.31-3.63.99-3.91,2.33-.21.99.24,1.88,1.14,2.07,1.17.25,2.36-.74,2.71-2.42.13-.61.11-1.29.06-1.98Z"/>
    <path class="cls-9" d="m85.8,202.39c.17-.37.42-.49.69-.45.38.06.78.51.69,1.17-.03.19-.11.46-.25.67-2.7,4.85-6.9,10.11-12.69,9.26-2.59-.38-5.07-2.6-4.53-6.3.68-4.67,5.31-8.84,9.54-8.22,2.4.35,3.55,2.06,3.3,3.8-.38,2.62-3.73,4.74-8.39,4.65,0,1.66.57,3,2.29,3.25,2.86.42,6.76-1.73,9.37-7.82Zm-11.5,3.01c2.26-.26,4.59-1.81,4.88-3.82.12-.81-.25-1.22-.63-1.28-1.37-.2-3.62,2.39-4.25,5.1Z"/>
    <path class="cls-9" d="m87.1,201.94l.46.04c1.11.09,2.57-.18,3.22-.6.41-.28.73-.37.96-.35.62.05,1.43.94,1.35,1.91-.05.58-.4,1.14-.92,1.84-1,1.37-2.44,3.4-2.6,5.35-.06.74.33,1.12.79,1.16.54.04,1.58.01,4.5-3.55.17-.22.41-.32.6-.3.27.02.48.27.45.62-.02.19-.07.39-.25.65-3.31,5.01-5.56,6.08-7.63,5.91-1.92-.16-3.23-1.63-3.07-3.66.15-1.87,1.93-4.23,3.28-5.64-2.41-.78-4.73-2.7-4.53-5.19.13-1.56,1.23-2.8,2.5-2.69.96.08,1.5,1.06,1.38,2.5-.04.47-.21,1.16-.51,1.99Z"/>
    <path class="cls-9" d="m102.55,196.77c-.72,1.19-1.58,2.85-2.32,4.74.74-.18,1.4-.35,1.98-.61,1.72-.78,1.89-1.44,2.23-1.43.42.01.95.53.92,1.58-.05,1.83-1.48,3.51-6.18,3.55-.42,1.55-.74,3.18-.77,4.74-.04,1.72.4,2.66,1.24,2.68.73.02,2.13-.42,4.85-4.13.16-.23.39-.34.59-.34.27,0,.5.25.49.6,0,.2-.05.39-.21.66-3.02,5.19-5.52,6.38-7.87,6.32-2.31-.06-3.53-2.04-3.47-4.77.02-.94.18-2.42.52-3.89.17-.74.39-1.59.64-2.44-.91-.45-1.55-1.25-1.53-2.07,0-.27.13-.5.32-.5.27,0,.68.37,1.8.4h.08c.75-2.24,1.65-4.48,2.62-6.25,1.29-2.35,2.33-3.61,3.67-3.58.89.02,2.06.75,2.03,2.04-.01.47-.92,1.46-1.65,2.69Z"/>
    <path class="cls-9" d="m137.11,199.78c-1.96.68-3.98,1.26-6.02,1.99-.38,6.13-1.25,13.95-7.73,14.91-3.7.54-5.73-1.64-6.11-4.23-.5-3.4,1.77-7.52,8.57-10.85.94-8.18,2.88-11.86,4.22-13.4-1.39-.19-2.85-.29-4.41-.06-4,.59-6.6,3.06-6.21,5.73.21,1.39,1.14,2.2,2.32,2.02.92-.13,1.46-.69,1.72-1,.13-.14.24-.23.39-.25.27-.04.57.19.68.89.27,1.81-1.32,4.81-4.48,5.27-2.75.4-5.21-1.28-5.69-4.49-.69-4.67,3.45-9.11,10.73-10.18,2.71-.4,4.92-.17,7.07-.1.69-.58,1.69-1.23,3.06-1.44,1.53-.22,2.77.26,2.94,1.46.19,1.27-.99,2.24-2.79,2.5-.69.1-1.35.12-2.05.07-.89,1.63-1.69,4.63-2.05,10.12l-.08.8c1.97-.65,4.03-1.22,6.22-1.94,1.21-7.4,4.58-14.12,8.92-14.76,2.17-.32,3.94,1.12,4.28,3.43.5,3.36-1.6,8.16-8.25,11.67-.29,2.49-.3,5.09.04,7.41.32,2.16,1.22,3.29,2.37,3.12,1.03-.15,2.54-1.28,4.58-5.41.12-.25.33-.4.52-.43.27-.04.53.16.58.51.03.19.02.39-.09.68-2.09,5.63-4.59,9-7.64,9.45-2.71.4-4.92-1.64-5.5-5.62-.36-2.47-.41-5.19-.11-7.87Zm-11.52,4.26c-3.92,2.23-5.27,4.92-5.03,6.58.13.89.72,1.75,1.75,1.6,2.21-.33,2.9-4.65,3.27-8.17Zm17.16-8.52c4.12-2.42,5.51-5.43,5.24-7.28-.09-.62-.45-.96-.99-.88-1.79.26-3.41,3.82-4.25,8.16Z"/>
    <path class="cls-9" d="m161.68,193.68c.59,1.98-.27,5.05-.98,6.56.05.31.15.65.24.95.33,1.12,1.01,1.49,1.63,1.3.7-.21,1.74-.76,3.18-5.14.08-.27.27-.45.45-.5.26-.08.55.08.65.42.06.19.07.39,0,.69-1.27,5.87-3.39,7.81-5.31,8.38-1.51.45-2.71-.17-3.57-1.34-1.13,2.29-2.56,3.16-3.81,3.54-2.36.7-4.19-.83-4.88-3.15-.51-1.72-.71-4.27-.52-6.36.23-2.59.73-4.86,2.09-5.26,1.33-.4,2.41.38,2.77,1.62.2.67.02,1.13-.26,2.36-.55,2.48-.66,4.27-.22,5.76.47,1.57,1.17,1.77,1.83,1.57.89-.26,1.55-.99,2.11-1.97v-.04c-.52-1.72-.61-4.3-.42-6.39.23-2.59,1.14-4.29,2.5-4.69,1.33-.4,2.15.46,2.51,1.69Z"/>
    <path class="cls-9" d="m169.34,198.81c.14-4.67,1.32-11.76,4.51-13.02,1-.4,2.46-.17,3.19,1.68,1.15,2.9-.08,6.62.58,8.29.21.54.63.76.95.63.5-.2,1.43-.69,2.47-5.17.06-.27.23-.47.41-.54.25-.1.55.03.68.36.07.18.11.38.06.69-.75,5.96-2.26,7.9-4.02,8.59-1.68.67-3.46-.15-4.2-2.03-.99-2.5-.17-5.89-.69-7.19-.1-.25-.32-.38-.53-.29-.86.34-1.81,4.32-1.73,8.19.06,2.45.42,3.99-.77,4.46-1.25.5-2.26.05-3.12-.87-.37-.4-.92-1.48-1.29-2.43-.34-.87-.65-2.26-.9-3.75-.65-3.64-.42-5.46.95-6,1.08-.42,2.32.21,2.74,1.27.45,1.12-.25,3.46.71,7.15Z"/>
    <path class="cls-9" d="m182.98,177.82c-.11,1.39-.12,3.25.08,5.28.58-.49,1.08-.95,1.49-1.44,1.18-1.47,1.03-2.13,1.35-2.28.38-.18,1.09.04,1.54,1,.79,1.66.27,3.8-3.91,5.96.32,1.58.78,3.17,1.45,4.58.74,1.55,1.56,2.2,2.32,1.84.66-.31,1.71-1.33,2.46-5.88.04-.28.2-.48.37-.56.24-.12.55,0,.7.31.08.18.13.37.11.68-.35,6-2.04,8.18-4.17,9.19-2.09.99-4.07-.23-5.25-2.69-.4-.85-.93-2.23-1.29-3.71-.18-.74-.37-1.59-.53-2.47-1.02,0-1.95-.42-2.3-1.16-.12-.25-.11-.51.06-.59.24-.12.78.02,1.79-.46l.07-.03c-.34-2.34-.55-4.75-.48-6.77.09-2.68.45-4.27,1.66-4.85.8-.38,2.18-.26,2.73.91.2.42-.16,1.72-.25,3.15Z"/>
    <path class="cls-9" d="m199.72,175.96c-.08-.4.04-.65.28-.77.34-.18.93-.06,1.25.52.09.17.19.43.2.69.75,5.5.55,12.22-4.59,15.02-2.3,1.25-5.61.97-7.4-2.32-2.26-4.15-1.06-10.26,2.69-12.3,2.13-1.16,4.08-.49,4.92,1.06,1.27,2.33-.14,6.03-3.92,8.75.99,1.33,2.26,2.06,3.78,1.23,2.54-1.38,4.37-5.44,2.8-11.87Zm-7.39,9.31c1.65-1.56,2.58-4.2,1.61-5.99-.39-.72-.93-.83-1.27-.64-1.22.66-1.46,4.08-.34,6.63Z"/>
    <path class="cls-9" d="m200.47,174.85l.39-.24c.95-.59,1.95-1.68,2.23-2.4.16-.47.36-.73.56-.85.52-.33,1.71-.1,2.22.73.31.5.36,1.16.36,2.03.01,1.69.07,4.19,1.1,5.84.39.63.94.7,1.33.46.62-.39.98-1.12,1.11-2.44.06-.49.01-.93.31-1.11.2-.12.47.03.78.52.74,1.19.8,5.29-2.07,7.09-1.64,1.02-3.57.61-4.64-1.11-.99-1.59-.97-4.54-.73-6.49-2.4.81-5.4.66-6.72-1.46-.83-1.32-.68-2.98.4-3.65.82-.51,1.84-.04,2.6,1.18.25.4.52,1.05.78,1.91Z"/>
  </g>
</svg>