<svg xmlns="http://www.w3.org/2000/svg" xmlns:xlink="http://www.w3.org/1999/xlink" width="156.17" height="123" viewBox="0 0 156.17 123"><defs><clipPath id="a"><rect width="49.68" height="49.68" fill="none"/></clipPath></defs><g transform="translate(-225.32 -732)"><g transform="translate(236.32 738.534)"><g transform="translate(0 -0.68)"><ellipse cx="72.585" cy="54.305" rx="72.585" ry="54.305" transform="translate(0 8.534)" fill="#fce38a"/><ellipse cx="35.728" cy="13.688" rx="35.728" ry="13.688" transform="translate(34.348 69.757) rotate(-77.48)" fill="#ff75a0"/><path d="M35.728-1.61c9.735,0,18.912,1.462,25.839,4.116a26.022,26.022,0,0,1,8.162,4.661c2.214,2.006,3.337,4.2,3.337,6.521s-1.123,4.516-3.337,6.521a26.022,26.022,0,0,1-8.162,4.661c-6.927,2.654-16.1,4.116-25.839,4.116S16.816,27.524,9.888,24.87a26.022,26.022,0,0,1-8.162-4.661C-.487,18.2-1.61,16.01-1.61,13.688S-.487,9.172,1.727,7.167A26.022,26.022,0,0,1,9.888,2.506C16.816-.148,25.993-1.61,35.728-1.61Zm0,27.376a85.673,85.673,0,0,0,13.649-1.055,56.224,56.224,0,0,0,11.038-2.848,23.235,23.235,0,0,0,7.152-4.041,5.782,5.782,0,0,0,2.279-4.135,5.782,5.782,0,0,0-2.279-4.135,23.235,23.235,0,0,0-7.152-4.041A56.224,56.224,0,0,0,49.377,2.665,85.673,85.673,0,0,0,35.728,1.61,85.673,85.673,0,0,0,22.079,2.665,56.224,56.224,0,0,0,11.04,5.513,23.235,23.235,0,0,0,3.889,9.553,5.782,5.782,0,0,0,1.61,13.688a5.782,5.782,0,0,0,2.279,4.135,23.235,23.235,0,0,0,7.152,4.041,56.224,56.224,0,0,0,11.038,2.848A85.673,85.673,0,0,0,35.728,25.766Z" transform="translate(34.348 69.757) rotate(-77.48)" fill="#fff"/><path d="M70.352,16.873c-17.3,11.045-8.7,52.2,0,53.673,9.506,1.613,30.7-42.243,19.905-53.673-4.468-4.728-14.172-3.661-19.905,0Z" transform="translate(14.543 4.148)" fill="#ff75a0"/><path d="M81.476,12.1h0a16.779,16.779,0,0,1,5.418.835,11.042,11.042,0,0,1,4.535,2.828A12.716,12.716,0,0,1,94.5,22.363a28.983,28.983,0,0,1,.1,8.441A71.241,71.241,0,0,1,89.117,49.9,74.436,74.436,0,0,1,80.44,65.206c-3.555,4.641-6.772,6.994-9.562,6.994a4.762,4.762,0,0,1-.794-.066c-2.226-.378-4.3-2.379-6.168-5.948a45.306,45.306,0,0,1-3.892-11.724A59.467,59.467,0,0,1,59.5,32.745a32.6,32.6,0,0,1,3.323-9.889,19.785,19.785,0,0,1,6.663-7.34A23.161,23.161,0,0,1,81.476,12.1Zm-10.6,56.874c1.638,0,4.257-2.143,7.006-5.732A71.16,71.16,0,0,0,86.16,48.622a67.977,67.977,0,0,0,5.246-18.19c.677-5.825-.125-10.131-2.318-12.453-1.617-1.711-4.32-2.654-7.612-2.654A19.809,19.809,0,0,0,71.219,18.23,16.61,16.61,0,0,0,65.648,24.4a29.405,29.405,0,0,0-2.979,8.913,49.616,49.616,0,0,0-.68,10.3,61.371,61.371,0,0,0,1.19,10.2,42.714,42.714,0,0,0,3.589,10.871c1.3,2.482,2.738,4.076,3.854,4.266A1.533,1.533,0,0,0,70.877,68.979Z" transform="translate(14.543 4.148)" fill="#fff"/><path d="M68.41,17.011C82.942,39.026,89.383,43.729,92.324,42.489c4.641-1.961,6.639-21.357-4.778-27.55C81.924,11.9,74.454,12.8,68.422,17.011Z" transform="translate(16.486 4.011)" fill="#ff75a0"/><path d="M80.159,12.038a16.665,16.665,0,0,1,7.913,1.929,15.2,15.2,0,0,1,4.489,3.714,18.279,18.279,0,0,1,2.833,4.847A25.823,25.823,0,0,1,97.076,33.17a21.11,21.11,0,0,1-1.255,6.479c-.776,2-1.836,3.337-3.067,3.858a3.513,3.513,0,0,1-1.374.27,6.954,6.954,0,0,1-3.745-1.394,29.316,29.316,0,0,1-4.856-4.319C78.766,33.79,73.621,26.911,67.488,17.62l-1.131-1.714H68.08A21.876,21.876,0,0,1,80.159,12.038ZM91.38,41.566a1.3,1.3,0,0,0,.514-.1,4.645,4.645,0,0,0,1.866-2.619,19.169,19.169,0,0,0,1.108-5.788c.3-6.074-1.611-13.769-7.849-17.153a14.252,14.252,0,0,0-6.86-1.662,19.49,19.49,0,0,0-10.213,3.08C75.739,26.046,80.6,32.51,84.39,36.551,86.149,38.424,89.4,41.566,91.38,41.566Z" transform="translate(16.486 4.011)" fill="#fff"/><path d="M118.013,86.182c-7.644,21.27-90.579,21.27-98.224,0-4.827-13.452,17.15-44.5,49.118-44.5s53.946,31.049,49.118,44.5Z" transform="translate(4.609 10.888)" fill="#ff75a0"/><path d="M68.9,103.744c-11.861,0-23.251-1.44-32.072-4.055A44.517,44.517,0,0,1,25,94.5c-3.424-2.265-5.688-4.882-6.729-7.778-1.055-2.94-1-6.657.145-10.752a40.889,40.889,0,0,1,6.019-12.149,56.232,56.232,0,0,1,7.787-8.865,58.384,58.384,0,0,1,10.224-7.584,54.4,54.4,0,0,1,12.343-5.307,50.836,50.836,0,0,1,28.233,0,54.4,54.4,0,0,1,12.343,5.307A58.385,58.385,0,0,1,105.59,54.96a56.233,56.233,0,0,1,7.787,8.865A40.889,40.889,0,0,1,119.4,75.974c1.149,4.095,1.2,7.813.145,10.751l-.383,1.066h-.074A17.148,17.148,0,0,1,112.8,94.5a44.517,44.517,0,0,1-11.826,5.186C92.152,102.3,80.762,103.744,68.9,103.744Zm.006-60.454a47.8,47.8,0,0,0-13.226,1.874,51.176,51.176,0,0,0-11.611,4.993,55.16,55.16,0,0,0-9.659,7.165,53.008,53.008,0,0,0-7.341,8.355,37.657,37.657,0,0,0-5.552,11.167c-.968,3.447-1.042,6.488-.214,8.793.8,2.227,2.642,4.307,5.475,6.18A41.369,41.369,0,0,0,37.744,96.6c8.532,2.529,19.6,3.922,31.157,3.922s22.625-1.393,31.157-3.922a41.369,41.369,0,0,0,10.965-4.784c2.832-1.874,4.674-3.953,5.475-6.181l.149-.416a15.32,15.32,0,0,0-.352-8.377,37.657,37.657,0,0,0-5.552-11.167,53.008,53.008,0,0,0-7.341-8.355,55.16,55.16,0,0,0-9.659-7.165,51.176,51.176,0,0,0-11.611-4.993A47.8,47.8,0,0,0,68.907,43.29Z" transform="translate(4.609 10.888)" fill="#fff"/><circle cx="2.234" cy="2.234" r="2.234" transform="translate(83.195 83.207)" fill="#fff"/><circle cx="2.234" cy="2.234" r="2.234" transform="translate(61.081 83.207)" fill="#fff"/><path d="M49.853,84.156c.472,2.767-.645,6.4-2.78,7.272-1.837.745-3.028-1.142-5.969-.645s-3.227,2.594-5.373,2.482c-2.594-.137-2.9-3.264-5.932-3.773-2.507-.422-3.6,1.5-5.423.794-1.924-.745-3.04-3.785-2.767-6.13.583-5.014,7.719-9.109,14.122-9.1,6.118,0,13.2,3.773,14.122,9.1Z" transform="translate(5.197 18.932)" fill="#ff75a0"/><path d="M35.7,73.45h.032a19.532,19.532,0,0,1,9.843,2.785c3.272,1.986,5.355,4.7,5.863,7.647a10.557,10.557,0,0,1-.483,5.163A6.233,6.233,0,0,1,47.68,92.92a3.954,3.954,0,0,1-1.492.3,6.261,6.261,0,0,1-2.157-.475,5.593,5.593,0,0,0-1.946-.431,4.24,4.24,0,0,0-.712.062h-.005a4.343,4.343,0,0,0-2.24,1.136,4.849,4.849,0,0,1-3.234,1.372c-.081,0-.163,0-.246-.006a5.459,5.459,0,0,1-3.891-2.249,3.789,3.789,0,0,0-2.224-1.543,2.719,2.719,0,0,0-.45-.039,4.176,4.176,0,0,0-1.631.441,5.7,5.7,0,0,1-2.257.572,3.862,3.862,0,0,1-1.4-.267,5.873,5.873,0,0,1-3.108-3.338,9.144,9.144,0,0,1-.677-4.48c.333-2.86,2.327-5.562,5.616-7.607A19.628,19.628,0,0,1,35.7,73.45ZM46.188,89.995a.718.718,0,0,0,.28-.058,3.277,3.277,0,0,0,1.456-1.974,7.343,7.343,0,0,0,.342-3.536c-.347-2.011-1.9-3.943-4.359-5.439A16.224,16.224,0,0,0,35.73,76.67H35.7A16.555,16.555,0,0,0,27.325,79.1c-2.4,1.494-3.9,3.405-4.118,5.244a5.914,5.914,0,0,0,.443,2.852,2.865,2.865,0,0,0,1.306,1.591.623.623,0,0,0,.237.049,3.326,3.326,0,0,0,1.017-.324,7.073,7.073,0,0,1,2.871-.689,5.947,5.947,0,0,1,.984.084,6.846,6.846,0,0,1,4.078,2.559c.762.843,1.1,1.164,1.671,1.194l.077,0c.36,0,.563-.132,1.208-.655a7.436,7.436,0,0,1,3.738-1.81,7.526,7.526,0,0,1,1.246-.106A8.533,8.533,0,0,1,45.1,89.7,3.953,3.953,0,0,0,46.188,89.995Z" transform="translate(5.197 18.932)" fill="#fff"/><path d="M103.623,84.156c.472,2.767-.645,6.4-2.78,7.272-1.837.745-3.028-1.142-5.969-.645s-3.227,2.594-5.373,2.482c-2.594-.137-2.9-3.264-5.932-3.773-2.507-.422-3.6,1.5-5.423.794-1.924-.745-3.04-3.785-2.767-6.13.583-5.014,7.719-9.109,14.122-9.1,6.118,0,13.2,3.773,14.122,9.1Z" transform="translate(18.155 18.932)" fill="#ff75a0"/><path d="M89.471,73.45H89.5a19.532,19.532,0,0,1,9.843,2.785c3.272,1.986,5.355,4.7,5.863,7.647a10.557,10.557,0,0,1-.483,5.163,6.233,6.233,0,0,1-3.276,3.874,3.954,3.954,0,0,1-1.492.3A6.261,6.261,0,0,1,97.8,92.74a5.593,5.593,0,0,0-1.946-.431,4.24,4.24,0,0,0-.712.062h-.005a4.343,4.343,0,0,0-2.24,1.136,4.849,4.849,0,0,1-3.234,1.372c-.081,0-.163,0-.246-.006a5.459,5.459,0,0,1-3.891-2.249A3.789,3.789,0,0,0,83.3,91.08a2.719,2.719,0,0,0-.45-.039,4.176,4.176,0,0,0-1.631.441,5.7,5.7,0,0,1-2.257.572,3.862,3.862,0,0,1-1.4-.267,5.873,5.873,0,0,1-3.108-3.338,9.144,9.144,0,0,1-.677-4.48c.333-2.86,2.327-5.562,5.616-7.607A19.628,19.628,0,0,1,89.471,73.45ZM99.958,89.995a.718.718,0,0,0,.281-.058,3.277,3.277,0,0,0,1.456-1.974,7.343,7.343,0,0,0,.342-3.536c-.347-2.011-1.9-3.943-4.359-5.439A16.224,16.224,0,0,0,89.5,76.67h-.029A16.555,16.555,0,0,0,81.095,79.1c-2.4,1.494-3.9,3.405-4.118,5.244a5.914,5.914,0,0,0,.443,2.852,2.865,2.865,0,0,0,1.306,1.591.623.623,0,0,0,.237.049,3.326,3.326,0,0,0,1.017-.324,7.072,7.072,0,0,1,2.871-.689,5.947,5.947,0,0,1,.984.084,6.846,6.846,0,0,1,4.078,2.559c.762.843,1.1,1.164,1.671,1.194l.077,0c.36,0,.563-.132,1.208-.655a7.436,7.436,0,0,1,3.738-1.81,7.526,7.526,0,0,1,1.246-.106,8.533,8.533,0,0,1,3.021.616A3.953,3.953,0,0,0,99.958,89.995Z" transform="translate(18.155 18.932)" fill="#fff"/><path d="M65.7,74.09c.558,1.427-1.526,4.852-4.852,4.852S55.451,75.529,56,74.09c.856-2.2,8.836-2.2,9.692,0Z" transform="translate(13.473 18.301)" fill="#fff"/></g></g><g transform="translate(225.32 732)"><g transform="translate(0 0)" clip-path="url(#a)"><path d="M24.941,0a24.948,24.948,0,0,1,9.708,47.923A24.948,24.948,0,0,1,15.233,1.96,24.784,24.784,0,0,1,24.941,0Zm0,48.883a23.948,23.948,0,0,0,9.319-46A23.948,23.948,0,0,0,15.622,47,23.789,23.789,0,0,0,24.941,48.883Z" transform="translate(-0.101 -0.101)" fill="#95e1d3"/><path d="M47.672,25.52A22.151,22.151,0,1,1,25.52,3.369,22.152,22.152,0,0,1,47.672,25.52" transform="translate(-0.68 -0.68)" fill="#95e1d3"/><path d="M34.23,13.738a4.161,4.161,0,1,1-4.161-4.161,4.161,4.161,0,0,1,4.161,4.161" transform="translate(-5.229 -1.933)" fill="#ff75a0"/><path d="M4.161-.375A4.536,4.536,0,1,1-.375,4.161,4.541,4.541,0,0,1,4.161-.375Zm0,8.322A3.786,3.786,0,1,0,.375,4.161,3.79,3.79,0,0,0,4.161,7.947Z" transform="translate(20.679 7.644)" fill="#fff"/><path d="M34.295,45.459a4.3,4.3,0,0,1-6.732,0v-18.9a3.15,3.15,0,0,1-1.275-2.99c.495-1.532,3.158-1.575,4.34-1.424.235.03,2.953.412,3.667,2.249a3.125,3.125,0,0,1,0,2.024c-.544,1.823-.753,6.918,0,19.037" transform="translate(-5.29 -4.459)" fill="#ff75a0"/><path d="M30.929,47.457h-.043a4.415,4.415,0,0,1-3.635-1.789l-.064-.095V26.725a3.374,3.374,0,0,1-1.257-3.268,2.312,2.312,0,0,1,1.577-1.426,6.763,6.763,0,0,1,2.148-.316,8.164,8.164,0,0,1,1.02.061c.322.04,3.18.455,3.969,2.485a3.4,3.4,0,0,1,.017,2.242l-.007.024c-.638,2.136-.633,8.5.015,18.908l.008.127-.071.106A4.418,4.418,0,0,1,30.929,47.457ZM27.938,45.34a3.7,3.7,0,0,0,2.955,1.367h.037a3.705,3.705,0,0,0,2.983-1.357c-.654-10.567-.646-16.795.023-19.036l.007-.025a2.725,2.725,0,0,0,0-1.756c-.642-1.654-3.253-2-3.364-2.013a7.581,7.581,0,0,0-.926-.055c-.614,0-2.645.088-3.011,1.222a2.8,2.8,0,0,0,1.171,2.6l.122.112Z" transform="translate(-5.29 -4.459)" fill="#fff"/></g></g></g></svg>