<svg xmlns="http://www.w3.org/2000/svg" xmlns:xlink="http://www.w3.org/1999/xlink" width="38" height="38" viewBox="0 0 38 38">
  <defs>
    <clipPath id="clip-path">
      <rect id="Rectangle_70" data-name="Rectangle 70" width="38" height="38" fill="none"/>
    </clipPath>
  </defs>
  <g id="Group_49" data-name="Group 49" transform="translate(0 0)">
    <g id="Group_48" data-name="Group 48" transform="translate(0 0)" clip-path="url(#clip-path)">
      <path id="Path_256" data-name="Path 256" d="M37.89,19.2A18.695,18.695,0,1,1,19.194.5,18.7,18.7,0,0,1,37.89,19.2Z" transform="translate(-0.195 -0.195)" fill="none" stroke="#95e1d3" stroke-miterlimit="10" stroke-width="1"/>
      <path id="Path_257" data-name="Path 257" d="M37.256,20.313A16.944,16.944,0,1,1,20.313,3.369,16.944,16.944,0,0,1,37.256,20.313" transform="translate(-1.312 -1.312)" fill="#95e1d3"/>
      <path id="Path_258" data-name="Path 258" d="M34.2,19.176a9.588,9.588,0,0,1-1.871,5.337c-.9,1.19-1.715,1.582-2.652,3.052a10.259,10.259,0,0,0-1.427,3.717H23.274a9.667,9.667,0,0,0-1.352-3.717,14.16,14.16,0,0,0-2.1-2.4,10.529,10.529,0,0,1-2.63-5.987c-.2-3.647,3.057-9,8.385-9.074,5.4-.074,8.689,5.333,8.625,9.074" transform="translate(-6.692 -3.934)" fill="#ff75a0"/>
      <path id="Path_259" data-name="Path 259" d="M34.2,19.176a9.588,9.588,0,0,1-1.871,5.337c-.9,1.19-1.715,1.582-2.652,3.052a10.259,10.259,0,0,0-1.427,3.717H23.274a9.667,9.667,0,0,0-1.352-3.717,14.16,14.16,0,0,0-2.1-2.4,10.529,10.529,0,0,1-2.63-5.987c-.2-3.647,3.057-9,8.385-9.074C30.974,10.028,34.265,15.435,34.2,19.176Z" transform="translate(-6.692 -3.934)" fill="none" stroke="#fff" stroke-miterlimit="10" stroke-width="0.5"/>
      <path id="Path_260" data-name="Path 260" d="M31.91,49.449c.113.434-.97,1.344-2.191,1.344s-2.3-.91-2.192-1.344c.2-.755,4.187-.755,4.383,0" transform="translate(-10.718 -19.039)" fill="#ff75a0"/>
      <path id="Path_261" data-name="Path 261" d="M31.91,49.449c.113.434-.97,1.344-2.191,1.344s-2.3-.91-2.192-1.344C27.723,48.693,31.714,48.693,31.91,49.449Z" transform="translate(-10.718 -19.039)" fill="none" stroke="#fff" stroke-miterlimit="10" stroke-width="0.751"/>
      <path id="Path_262" data-name="Path 262" d="M31.477,45.964H27.255a.641.641,0,0,1,0-1.282h4.222a.641.641,0,0,1,0,1.282" transform="translate(-10.366 -17.403)" fill="#ff75a0"/>
      <path id="Path_263" data-name="Path 263" d="M31.477,45.964H27.255a.641.641,0,0,1,0-1.282h4.222a.641.641,0,0,1,0,1.282Z" transform="translate(-10.366 -17.403)" fill="none" stroke="#fff" stroke-miterlimit="10" stroke-width="0.751"/>
      <path id="Path_264" data-name="Path 264" d="M31.477,48.064H27.255a.641.641,0,1,1,0-1.282h4.222a.641.641,0,1,1,0,1.282" transform="translate(-10.366 -18.221)" fill="#ff75a0"/>
      <path id="Path_265" data-name="Path 265" d="M31.477,48.064H27.255a.641.641,0,1,1,0-1.282h4.222a.641.641,0,1,1,0,1.282Z" transform="translate(-10.366 -18.221)" fill="none" stroke="#fff" stroke-miterlimit="10" stroke-width="0.751"/>
      <path id="Path_266" data-name="Path 266" d="M35.629,14.6a4.783,4.783,0,0,1,3.683,4.883" transform="translate(-13.877 -5.685)" fill="none" stroke="#fff" stroke-linecap="round" stroke-miterlimit="10" stroke-width="1"/>
      <path id="Path_267" data-name="Path 267" d="M28.638,36.121l1.565.789.073,5.529" transform="translate(-11.154 -14.069)" fill="#ff75a0"/>
      <path id="Path_268" data-name="Path 268" d="M28.638,36.121l1.565.789.073,5.529" transform="translate(-11.154 -14.069)" fill="none" stroke="#fff" stroke-linecap="round" stroke-miterlimit="10" stroke-width="1"/>
      <path id="Path_269" data-name="Path 269" d="M32.634,35.976l-1.521.919" transform="translate(-12.118 -14.012)" fill="#ff75a0"/>
      <path id="Path_270" data-name="Path 270" d="M32.634,35.976l-1.521.919" transform="translate(-12.118 -14.012)" fill="none" stroke="#fff" stroke-linecap="round" stroke-miterlimit="10" stroke-width="1"/>
    </g>
  </g>
</svg>
