<svg xmlns="http://www.w3.org/2000/svg" xmlns:xlink="http://www.w3.org/1999/xlink" width="330" height="159" viewBox="0 0 330 159"><defs><clipPath id="a"><rect width="330" height="159" fill="none"/></clipPath></defs><g transform="translate(-35 -426)"><g transform="translate(35 426)" clip-path="url(#a)"><g transform="translate(-35 -426)"><rect width="330" height="159" transform="translate(35 426)" fill="#55e0dc"/></g></g><g transform="translate(69 444.489)"><g transform="translate(-23.733)"><ellipse cx="35.728" cy="13.688" rx="35.728" ry="13.688" transform="translate(34.348 69.757) rotate(-77.48)" fill="#ff75a0" stroke="#fff" stroke-miterlimit="10" stroke-width="3.22"/><path d="M70.352,16.873c-17.3,11.045-8.7,52.2,0,53.673,9.506,1.613,30.7-42.243,19.905-53.673-4.468-4.728-14.172-3.661-19.905,0Z" transform="translate(14.543 4.148)" fill="#ff75a0" stroke="#fff" stroke-miterlimit="10" stroke-width="3.22"/><path d="M68.41,17.011C82.942,39.026,89.383,43.729,92.324,42.489c4.641-1.961,6.639-21.357-4.778-27.55C81.924,11.9,74.454,12.8,68.422,17.011Z" transform="translate(16.486 4.011)" fill="#ff75a0" stroke="#fff" stroke-miterlimit="10" stroke-width="2.21"/><path d="M118.013,86.182c-7.644,21.27-90.579,21.27-98.224,0-4.827-13.452,17.15-44.5,49.118-44.5s53.946,31.049,49.118,44.5Z" transform="translate(4.609 10.888)" fill="#ff75a0" stroke="#fff" stroke-miterlimit="10" stroke-width="3.22"/><circle cx="2.234" cy="2.234" r="2.234" transform="translate(83.195 83.207)" fill="#fff"/><circle cx="2.234" cy="2.234" r="2.234" transform="translate(61.081 83.207)" fill="#fff"/><path d="M49.853,84.156c.472,2.767-.645,6.4-2.78,7.272-1.837.745-3.028-1.142-5.969-.645s-3.227,2.594-5.373,2.482c-2.594-.137-2.9-3.264-5.932-3.773-2.507-.422-3.6,1.5-5.423.794-1.924-.745-3.04-3.785-2.767-6.13.583-5.014,7.719-9.109,14.122-9.1,6.118,0,13.2,3.773,14.122,9.1Z" transform="translate(5.197 18.932)" fill="#ff75a0" stroke="#fff" stroke-miterlimit="10" stroke-width="3.22"/><path d="M103.623,84.156c.472,2.767-.645,6.4-2.78,7.272-1.837.745-3.028-1.142-5.969-.645s-3.227,2.594-5.373,2.482c-2.594-.137-2.9-3.264-5.932-3.773-2.507-.422-3.6,1.5-5.423.794-1.924-.745-3.04-3.785-2.767-6.13.583-5.014,7.719-9.109,14.122-9.1,6.118,0,13.2,3.773,14.122,9.1Z" transform="translate(18.155 18.932)" fill="#ff75a0" stroke="#fff" stroke-miterlimit="10" stroke-width="3.22"/><path d="M65.7,74.09c.558,1.427-1.526,4.852-4.852,4.852S55.451,75.529,56,74.09c.856-2.2,8.836-2.2,9.692,0Z" transform="translate(13.473 18.301)" fill="#fff"/></g></g><text transform="translate(188 532)" fill="#fff" font-size="36" font-family="CoconPro-Regular, CoconPro"><tspan x="0" y="0">15% Off</tspan></text><path d="M0,0H6V2H0ZM16,0h6V2H16ZM32,0h6V2H32ZM48,0h6V2H48ZM64,0h6V2H64ZM80,0h6V2H80ZM96,0h6V2H96Zm16,0h6V2h-6Zm16,0h6V2h-6Zm16,0h6V2h-6Zm16,0h6V2h-6Zm16,0h6V2h-6Zm16,0h6V2h-6Zm16,0h6V2h-6Zm16,0h6V2h-6Zm16,0h6V2h-6Zm16,0h6V2h-6Zm16,0h6V2h-6Zm16,0h6V2h-6Zm15,0h2V5h-2Zm0,15h2v6h-2Zm0,16h2v6h-2Zm0,16h2v6h-2Zm0,16h2v6h-2Zm0,16h2v6h-2Zm0,16h2v6h-2Zm0,16h2v6h-2Zm0,16h2v6h-2Zm-13,5h6v2h-6Zm-16,0h6v2h-6Zm-16,0h6v2h-6Zm-16,0h6v2h-6Zm-16,0h6v2h-6Zm-16,0h6v2h-6Zm-16,0h6v2h-6Zm-16,0h6v2h-6Zm-16,0h6v2h-6Zm-16,0h6v2h-6Zm-16,0h6v2h-6Zm-16,0h6v2h-6Zm-16,0h6v2H98Zm-16,0h6v2H82Zm-16,0h6v2H66Zm-16,0h6v2H50Zm-16,0h6v2H34Zm-16,0h6v2H18ZM2,132H8v2H2ZM0,120H2v6H0Zm0-16H2v6H0ZM0,88H2v6H0ZM0,72H2v6H0ZM0,56H2v6H0ZM0,40H2v6H0ZM0,24H2v6H0ZM0,8H2v6H0Z" transform="translate(48 439)" fill="#fff"/><text transform="translate(197 487)" fill="#fff" font-size="20" font-family="GelatoLuxe, Gelato Luxe"><tspan x="0" y="0">Dessert Hunter</tspan></text></g></svg>