<svg xmlns="http://www.w3.org/2000/svg" width="29" height="21.909" viewBox="0 0 29 21.909"><g transform="translate(0 -4.5)"><path d="M9.773,4.5H25.136A3.868,3.868,0,0,1,29,8.364V22.545a3.868,3.868,0,0,1-3.864,3.864H9.773A1.5,1.5,0,0,1,8.644,25.9L.371,16.442a1.5,1.5,0,0,1,0-1.976L8.644,5.012A1.5,1.5,0,0,1,9.773,4.5ZM25.136,23.409A.865.865,0,0,0,26,22.545V8.364a.865.865,0,0,0-.864-.864H10.453l-6.96,7.955,6.96,7.955Z" transform="translate(0 0)" fill="#552c1c"/><path d="M18,24a1.5,1.5,0,0,1-1.061-2.561l9-9a1.5,1.5,0,0,1,2.121,2.121l-9,9A1.5,1.5,0,0,1,18,24Z" transform="translate(-4.812 -2.545)" fill="#552c1c"/><path d="M27,24a1.5,1.5,0,0,1-1.061-.439l-9-9a1.5,1.5,0,0,1,2.121-2.121l9,9A1.5,1.5,0,0,1,27,24Z" transform="translate(-4.812 -2.545)" fill="#552c1c"/></g></svg>